<svg width="307" height="340" viewBox="0 0 307 340" fill="none" xmlns="http://www.w3.org/2000/svg">
<path d="M302.911 285.585L212.987 337.991C208.964 340.349 202.865 340.611 199.362 338.515L2.38415 223.614C-1.11941 221.649 -0.600297 218.112 3.4223 215.753L93.3468 163.347C97.3694 160.989 103.468 160.727 106.972 162.823L303.949 277.724C307.453 279.689 306.934 283.226 302.911 285.585Z" fill="#0F632D"/>
<path d="M306.285 252.7L287.729 249.424L106.972 143.957C103.468 141.992 97.3696 142.123 93.347 144.481L9.52125 193.35L0.0487061 191.647V201.342C0.0487061 202.652 0.827257 203.831 2.38439 204.748L199.362 319.649C202.865 321.614 208.964 321.483 212.987 319.125L302.911 266.718C305.117 265.408 306.285 263.705 306.285 262.133V252.7Z" fill="#1E7742"/>
<path d="M302.912 257.154L212.987 309.561C208.965 311.919 202.866 312.181 199.362 310.085L2.38488 195.184C-1.11867 193.219 -0.599564 189.681 3.42303 187.323L93.3475 134.917C97.3701 132.558 103.469 132.296 106.972 134.393L303.95 249.293C307.453 251.259 306.934 254.796 302.912 257.154Z" fill="#38E57E"/>
<path d="M302.911 255.975L212.987 308.381C208.964 310.74 202.865 311.002 199.362 308.905L2.38435 194.005C1.08673 193.219 0.308183 192.302 0.0486611 191.254C-0.210861 192.695 0.56769 194.267 2.38435 195.315L199.362 310.216C202.865 312.181 208.964 312.05 212.987 309.692L302.911 257.285C305.377 255.844 306.545 253.879 306.155 252.176C306.026 253.486 304.858 254.796 302.911 255.975Z" fill="white"/>
<path d="M303.041 248.769L198.713 309.692L3.29285 195.839L107.751 134.917L303.041 248.769Z" fill="#2ECC71"/>
<path d="M61.8148 158.762L47.9304 166.885C47.2816 167.278 46.3732 167.278 45.8541 167.016L45.7244 166.885C45.2054 166.623 45.2053 166.099 45.8541 165.705L59.7386 157.582C60.3874 157.189 61.2958 157.189 61.8148 157.451L61.9445 157.582C62.5933 157.844 62.4636 158.369 61.8148 158.762Z" fill="#1C7540"/>
<path d="M28.7262 196.756L27.0392 197.804L22.887 195.315L24.5738 194.398L28.7262 196.756Z" fill="white"/>
<path d="M31.9702 194.922L30.2833 195.97L26.131 193.481L27.8179 192.432L31.9702 194.922Z" fill="white"/>
<path d="M35.2142 192.957L33.3975 194.005L29.2451 191.646L31.0618 190.598L35.2142 192.957Z" fill="white"/>
<path d="M38.4583 191.123L36.6415 192.171L32.4891 189.681L34.3058 188.764L38.4583 191.123Z" fill="white"/>
<path opacity="0.6" d="M156.8 222.959C143.175 230.951 121.116 230.951 107.491 222.959C93.866 214.967 93.866 202.128 107.491 194.136C121.116 186.144 143.175 186.144 156.8 194.136C170.425 202.128 170.425 214.967 156.8 222.959Z" fill="#17994C"/>
<path d="M132.146 240.384C118.261 240.384 104.377 237.24 93.8661 231.082C83.4852 225.056 77.9055 217.064 77.9055 208.417C77.9055 199.9 83.615 191.778 93.8661 185.751C115.017 173.435 149.404 173.435 170.555 185.751C180.936 191.778 186.516 199.769 186.516 208.417C186.516 216.933 180.806 225.056 170.555 231.082C159.915 237.371 146.03 240.384 132.146 240.384ZM132.146 177.628C118.391 177.628 104.766 180.641 94.2555 186.799C84.2639 192.695 78.6841 200.425 78.6841 208.548C78.6841 216.802 84.2639 224.531 94.2555 230.296C115.147 242.481 149.144 242.481 169.906 230.296C179.898 224.4 185.478 216.671 185.478 208.548C185.478 200.294 179.898 192.564 169.906 186.799C159.525 180.641 145.9 177.628 132.146 177.628Z" fill="white"/>
<path d="M273.326 88.6683L123.582 1.28083C122.414 0.625755 121.376 0.494744 120.467 1.01881L118.261 2.32896C118.261 2.32896 118.78 2.45998 119.299 2.45998C119.04 3.11505 118.91 3.90115 118.91 4.81826V109.107C118.91 112.644 120.986 116.575 123.582 118.147L273.456 205.534C273.715 205.665 273.975 205.796 274.234 205.927V207.106L276.44 205.796C277.478 205.272 277.997 203.831 277.997 201.997V97.7084C277.997 94.1709 275.921 90.1095 273.326 88.6683Z" fill="#EFEFEF"/>
<path d="M271.25 206.714L121.375 119.327C118.78 117.886 116.704 113.824 116.704 110.287V6.12939C116.704 2.59197 118.78 1.01978 121.375 2.59197L271.25 89.9793C273.845 91.4205 275.921 95.482 275.921 99.0194V203.308C275.921 206.583 273.715 208.155 271.25 206.714Z" fill="#2ECC71"/>
<path d="M158.098 119.195L129.68 102.556V98.7566L158.098 115.264V119.195Z" fill="white"/>
<path d="M193.004 139.502L164.586 122.994V119.064L193.004 135.703V139.502Z" fill="white"/>
<path d="M228.039 159.941L199.491 143.302V139.502L228.039 156.01V159.941Z" fill="white"/>
<path d="M262.945 180.248L234.527 163.74V159.81L262.945 176.449V180.248Z" fill="white"/>
<path d="M150.442 43.5987L116.704 40.8474V110.417C116.704 113.954 118.78 117.885 121.375 119.457L186.256 157.189C202.995 133.213 199.232 96.5291 199.232 96.5291L150.442 43.5987Z" fill="#1E773E"/>
<path d="M187.684 104.521L138.893 51.5909L90.1031 47.6604C90.1031 47.6604 82.3174 114.478 138.893 185.227C195.469 180.51 187.684 104.521 187.684 104.521Z" fill="#17994C"/>
<path d="M90.1031 47.6604L79.0734 54.0801L127.863 58.1416L138.893 51.7219L90.1031 47.6604Z" fill="#1B5633"/>
<path d="M176.654 110.941L127.863 58.0106L107.75 55.9143L79.0732 53.9491C79.0732 53.9491 71.2875 120.767 127.863 191.516C184.569 186.93 176.654 110.941 176.654 110.941Z" fill="#2ECC71"/>
<path d="M176.654 110.941L127.863 58.0106L79.0732 54.0802C80.5006 53.2941 80.5006 53.2941 80.5006 53.2941L129.94 57.3555L178.73 110.286C178.73 110.286 185.218 173.697 143.175 188.24C183.012 172.387 176.654 110.941 176.654 110.941Z" fill="white"/>
<path d="M170.684 111.727L126.825 64.1683L108.788 62.3341L82.966 60.6309C82.966 60.6309 75.9588 120.636 126.825 184.309C177.821 179.986 170.684 111.727 170.684 111.727Z" fill="#87E8AE"/>
<path d="M205.461 277.2C205.071 277.2 204.812 276.938 204.812 276.545C204.812 276.152 205.071 275.89 205.461 275.759C215.712 274.972 226.093 271.828 234.527 266.849C243.61 261.478 249.19 256.237 250.747 251.128C250.877 250.735 251.266 250.604 251.656 250.735C252.045 250.866 252.175 251.259 252.045 251.652C250.228 257.154 244.649 262.657 235.176 268.16C226.482 273.138 216.101 276.414 205.461 277.2Z" fill="white"/>
<path d="M251.915 248.376C251.526 248.376 251.266 248.114 251.266 247.721C251.137 243.66 248.152 239.86 242.702 236.585C230.764 229.641 215.063 229.641 198.713 236.716C198.324 236.847 197.935 236.716 197.805 236.323C197.675 235.93 197.805 235.537 198.194 235.406C215.063 228.2 231.024 228.2 243.481 235.406C249.32 238.812 252.564 243.005 252.694 247.59C252.564 248.114 252.304 248.376 251.915 248.376Z" fill="white"/>
<path d="M195.08 277.2C189.241 276.676 184.18 275.234 180.417 273.007C176.135 270.518 173.54 267.243 172.761 263.312C172.631 262.788 172.761 262.264 173.15 261.74C173.799 260.954 175.097 260.561 176.524 260.561C178.081 260.692 179.379 261.347 179.638 262.395C180.417 265.015 182.363 267.374 185.348 269.077C195.988 275.234 216.49 273.4 231.024 264.884C240.367 259.382 245.427 253.879 245.427 248.769C245.427 245.232 242.962 241.826 238.161 239.074C225.833 231.868 209.224 233.441 192.485 243.267C186.386 246.804 182.104 251.128 180.287 255.451C179.898 256.368 178.73 256.892 177.303 257.023C175.875 257.023 174.707 256.499 174.188 255.713C173.929 255.189 173.799 254.665 174.059 254.141C176.524 249.031 181.455 244.315 188.462 240.253C188.851 240.122 189.241 240.122 189.37 240.515C189.5 240.908 189.5 241.301 189.111 241.432C182.363 245.363 177.562 249.948 175.226 254.796C175.226 254.927 175.226 254.927 175.226 255.058C175.486 255.451 176.135 255.713 177.173 255.713C178.211 255.713 178.73 255.32 178.86 255.058C180.806 250.473 185.348 245.887 191.706 242.219C208.964 232.13 226.093 230.689 238.809 238.026C244 241.039 246.725 244.839 246.725 248.9C246.725 254.534 241.664 260.43 231.673 266.194C216.75 274.841 195.599 276.807 184.569 270.387C181.195 268.422 178.989 265.801 178.211 262.919C178.081 262.526 177.303 262.133 176.264 262.133C175.226 262.133 174.318 262.395 174.059 262.788C173.929 262.919 173.929 263.05 173.929 263.181C174.578 266.587 177.043 269.601 180.936 271.828C184.569 273.924 189.37 275.365 194.95 275.89C195.339 275.89 195.599 276.283 195.599 276.676C195.729 276.938 195.469 277.2 195.08 277.2Z" fill="white"/>
<path d="M212.208 270.125C211.17 270.125 210.003 269.732 209.483 269.077C209.094 268.553 208.964 268.029 209.094 267.504C209.354 266.718 210.132 266.194 211.17 265.932C215.842 265.015 220.254 263.312 224.146 261.085C230.505 257.416 234.008 253.748 234.527 250.473C234.787 248.9 234.138 247.328 232.84 245.887C232.321 245.363 232.192 244.839 232.321 244.315C232.451 243.529 233.1 243.005 234.138 242.612C235.825 241.957 237.901 242.35 238.809 243.398C240.626 245.363 241.534 247.59 241.405 249.948C241.145 253.355 238.68 256.892 234.138 260.43C233.879 260.692 233.359 260.561 233.23 260.299C232.97 260.037 233.1 259.513 233.359 259.382C237.642 256.106 239.848 252.962 240.107 249.948C240.237 247.983 239.588 246.149 237.901 244.446C237.382 243.922 235.825 243.529 234.657 244.053C234.008 244.315 233.749 244.577 233.749 244.708C233.749 244.708 233.749 244.839 233.879 245.101C235.565 246.804 236.214 248.769 235.955 250.735C235.436 254.534 231.673 258.464 224.925 262.395C220.902 264.753 216.361 266.456 211.56 267.373C210.911 267.504 210.522 267.767 210.522 268.029C210.522 268.029 210.522 268.16 210.651 268.291C211.041 268.684 212.079 268.946 213.117 268.815C218.437 267.635 223.498 265.67 227.78 263.181C228.169 263.05 228.558 263.05 228.688 263.443C228.818 263.836 228.818 264.229 228.429 264.36C224.017 266.98 218.697 268.946 213.376 270.125C212.987 269.994 212.598 270.125 212.208 270.125Z" fill="white"/>
<path d="M201.438 271.173H201.308C196.248 271.042 191.965 269.994 188.851 268.16C185.218 266.063 183.401 263.181 183.401 259.775C183.401 254.534 187.943 248.769 195.469 244.315C207.537 237.371 219.475 235.013 229.337 238.026C230.375 238.288 231.153 238.943 231.283 239.729C231.413 240.253 231.283 240.908 230.894 241.432C229.985 242.48 228.039 242.874 226.352 242.349C219.345 240.253 210.521 241.694 201.568 246.542C201.178 246.673 201.049 246.935 201.049 247.066C201.049 247.197 201.179 247.328 201.438 247.459C202.217 247.852 203.514 247.852 204.293 247.459C213.246 242.612 221.681 241.825 227.26 245.101C229.466 246.411 230.764 248.114 230.764 250.079C230.764 253.224 227.65 256.761 221.551 260.299C213.116 265.146 202.087 266.718 196.896 263.705C195.21 262.788 194.301 261.478 194.042 259.775C193.782 257.678 194.69 255.32 196.896 252.962C197.026 252.831 197.026 252.7 197.026 252.7C197.026 252.569 196.767 252.307 196.377 252.176C195.339 251.783 193.912 252.045 193.523 252.569C191.187 255.189 190.019 257.809 190.408 260.168C190.668 262.002 191.836 263.574 193.912 264.753C195.988 265.932 198.843 266.718 202.087 266.849C203.774 266.98 205.071 267.767 205.201 268.946C205.201 269.47 205.071 269.863 204.682 270.256C203.644 270.78 202.606 271.173 201.438 271.173ZM220.383 238.026C212.857 238.026 204.552 240.515 196.118 245.363C188.981 249.555 184.699 254.796 184.699 259.513C184.699 262.395 186.386 264.884 189.5 266.718C192.485 268.422 196.507 269.47 201.308 269.601C202.217 269.601 202.865 269.339 203.125 269.077C203.255 268.946 203.255 268.946 203.255 268.815C203.255 268.422 202.606 268.029 201.438 267.898C197.934 267.636 194.95 266.849 192.614 265.539C190.279 264.098 188.851 262.264 188.462 260.037C188.073 257.285 189.241 254.272 191.966 251.39C192.874 250.341 194.95 250.079 196.377 250.734C197.156 251.128 197.675 251.652 197.805 252.176C197.934 252.7 197.805 253.224 197.415 253.617C195.599 255.582 194.69 257.678 194.95 259.251C195.08 260.43 195.858 261.347 197.156 262.133C201.957 265.015 212.468 263.443 220.513 258.726C226.093 255.451 229.077 252.307 229.077 249.686C229.077 248.245 228.169 246.935 226.352 245.887C221.162 242.874 213.246 243.791 204.682 248.376C203.514 249.031 201.698 249.031 200.53 248.376C199.881 247.983 199.492 247.328 199.492 246.673C199.492 246.018 199.881 245.363 200.659 244.97C210.002 239.991 219.215 238.419 226.482 240.646C227.779 241.039 229.077 240.646 229.596 240.122C229.726 239.86 229.726 239.86 229.726 239.729C229.596 239.467 229.337 239.205 228.688 238.943C226.222 238.419 223.368 238.026 220.383 238.026Z" fill="white"/>
<path d="M204.682 262.002C202.995 262.002 201.698 261.74 200.66 261.085C199.622 260.43 198.973 259.513 198.973 258.333C198.973 255.844 201.568 252.831 205.98 250.342C213.117 246.149 219.345 245.101 223.108 247.197C224.665 248.114 225.054 249.293 225.054 250.079C225.054 252.045 223.238 254.403 219.605 256.761C218.437 257.547 216.49 257.547 215.322 256.892C214.674 256.499 214.284 255.975 214.284 255.32C214.284 254.665 214.544 254.141 215.193 253.748C218.177 251.783 218.177 250.997 218.177 250.997C217.399 250.473 214.803 250.866 210.262 253.617C207.148 255.451 205.85 257.023 205.85 257.416C205.85 257.809 205.59 258.071 205.201 258.071C204.812 258.071 204.552 257.809 204.552 257.416C204.552 255.582 208.445 253.093 209.743 252.307C212.857 250.473 217.009 248.507 218.956 249.686C219.475 249.948 219.734 250.342 219.734 250.866C219.734 251.521 219.345 252.7 216.101 254.796C215.841 254.927 215.841 255.058 215.841 255.189C215.841 255.32 215.971 255.451 216.231 255.582C217.009 256.106 218.437 255.975 219.085 255.582C223.368 252.7 224.016 250.866 224.016 250.079C224.016 249.424 223.497 248.769 222.719 248.245C221.162 247.328 216.49 245.756 207.018 251.39C203.125 253.617 200.66 256.368 200.66 258.202C200.66 258.857 200.919 259.382 201.698 259.775C203.385 260.692 206.629 260.692 210.392 259.644C210.781 259.513 211.17 259.775 211.17 260.168C211.3 260.561 211.04 260.954 210.651 260.954C208.315 261.74 206.369 262.002 204.682 262.002Z" fill="white"/>
<path d="M193.393 238.288C193.263 238.288 193.263 238.288 193.134 238.288L175.226 227.807C174.967 227.676 174.967 227.414 175.097 227.152C175.226 226.89 175.486 226.89 175.746 227.021L193.653 237.502C193.912 237.633 193.912 237.895 193.782 238.157C193.653 238.288 193.523 238.288 193.393 238.288Z" fill="white"/>
<path d="M130.132 216.514L120.621 221.295L118.912 220.436L118.893 216.789C118.867 215.702 118.8 214.957 118.691 214.555C118.583 214.147 118.407 213.801 118.163 213.518C117.92 213.235 117.568 212.978 117.108 212.746C116.474 212.428 115.783 212.273 115.035 212.283C114.292 212.289 113.585 212.461 112.913 212.799C112.376 213.069 111.954 213.381 111.647 213.735C111.346 214.085 111.125 214.557 110.984 215.148L108.278 215.013C108.399 214.29 108.69 213.674 109.151 213.166C109.612 212.657 110.258 212.194 111.09 211.776C112.395 211.12 113.784 210.766 115.255 210.715C116.721 210.66 118.029 210.922 119.181 211.501C119.814 211.82 120.301 212.18 120.64 212.582C120.985 212.981 121.225 213.452 121.36 213.995C121.494 214.533 121.529 215.335 121.465 216.403L121.388 218.815L121.484 218.863L128.145 215.515L130.132 216.514ZM138.799 209.079L136.908 210.03L139.97 211.569L137.772 212.674L134.71 211.135L128.299 214.357L126.562 213.484L123.702 205.601L125.899 204.496L135.037 209.089L136.927 208.139L138.799 209.079ZM132.839 210.194L129.316 208.423C128.062 207.793 127.067 207.261 126.331 206.826L126.255 206.865C126.498 207.167 126.728 207.566 126.946 208.061L128.529 212.36L132.839 210.194ZM135.689 199.614L144.5 209.292L142.369 210.363L133.568 200.68L135.689 199.614ZM152.351 205.345L145.873 196.512L138.578 200.178L136.592 199.18L146.295 194.302L147.869 195.094L154.789 204.12L152.351 205.345Z" fill="white"/>
</svg>
