<svg width="332" height="336" viewBox="0 0 332 336" fill="none" xmlns="http://www.w3.org/2000/svg">
<path d="M146.08 132.556C145.888 132.556 145.791 132.556 145.599 132.458L104.797 108.654C104.412 108.362 104.219 107.876 104.508 107.391C104.797 107.002 105.278 106.808 105.759 107.099L146.561 130.904C146.946 131.195 147.139 131.681 146.85 132.167C146.754 132.361 146.465 132.556 146.08 132.556Z" fill="#2ECC71"/>
<path d="M71.5003 186.578C71.3078 186.578 71.2116 186.578 71.0191 186.481L0.481159 144.992C0.192464 144.798 0 144.507 0 144.118C0 143.729 0.192464 143.438 0.481159 143.243L65.149 107.779C65.6301 107.488 66.2075 107.682 66.4962 108.168C66.7849 108.654 66.5924 109.237 66.1113 109.528L2.88696 144.118L71.9814 184.732C72.4626 185.023 72.5588 185.606 72.3664 186.092C72.0777 186.481 71.789 186.578 71.5003 186.578Z" fill="#2ECC71"/>
<path d="M157.628 62.9874L234.132 107.585C236.249 108.848 237.885 107.488 237.885 104.67V61.4328C237.885 58.615 236.153 55.3115 234.132 54.1456L157.628 9.54795C155.511 8.28484 153.875 9.64512 153.875 12.4628V55.7002C153.875 58.5179 155.607 61.8214 157.628 62.9874Z" fill="url(#paint0_linear)"/>
<path d="M225.856 234.771L113.361 169.186C112.495 168.7 112.014 167.826 112.014 166.854C112.014 165.882 112.495 165.008 113.361 164.522L183.225 123.811L183.803 123.52L301.591 192.214C302.457 192.699 302.938 193.574 302.938 194.545C302.938 195.517 302.457 196.391 301.591 196.877L236.538 234.771C234.902 235.742 233.073 236.228 231.245 236.228C229.417 236.228 227.492 235.742 225.856 234.771ZM114.516 166.465C114.323 166.563 114.323 166.757 114.323 166.854C114.323 166.951 114.323 167.146 114.516 167.243L227.011 232.827C229.609 234.382 232.881 234.382 235.479 232.827L300.628 194.837C300.821 194.74 300.821 194.545 300.821 194.448C300.821 194.351 300.821 194.157 300.628 194.06L183.899 126.046L114.516 166.465Z" fill="#2ECC71"/>
<path d="M183.707 96.4112L199.392 2.55225L198.141 1.96927L200.066 0.900485C200.451 0.608998 200.932 0.706163 201.509 0.99765L326.803 73.9666C327.862 74.5496 328.632 76.1042 328.439 77.173L312.657 171.809C312.561 172.295 312.369 172.587 311.984 172.781L310.155 173.85L309.867 172.101H309.963L185.439 99.5204C184.284 99.0345 183.514 97.4799 183.707 96.4112Z" fill="#1E7742"/>
<path d="M326.034 76.59L328.054 75.7156C328.247 76.2014 328.439 76.7844 328.343 77.2702L312.561 171.906C312.465 172.392 312.272 172.684 311.888 172.878L310.059 173.947L309.77 172.198H309.867L303.612 168.506L326.034 76.59Z" fill="#0F632D"/>
<path d="M183.322 100.784L308.616 173.753C309.578 174.336 310.444 173.948 310.54 172.976L326.322 78.3399C326.515 77.2711 325.745 75.7165 324.686 75.1336L199.489 2.16456C198.526 1.58159 197.66 1.97024 197.564 2.94187L181.782 97.5781C181.589 98.6469 182.359 100.201 183.322 100.784Z" fill="#38E57E"/>
<g opacity="0.51">
<path opacity="0.51" d="M201.125 8.18777L321.896 78.5334L306.883 167.729L186.209 97.3829L201.125 8.18777Z" fill="#041860"/>
</g>
<path d="M104.604 145.575L111.436 149.17L179.953 109.237C181.108 108.556 183.129 108.654 184.38 109.431L302.553 178.319C303.708 177.639 308.808 175.21 308.808 175.21L306.306 181.817C306.21 182.109 306.017 182.4 305.632 182.594L233.458 224.666C232.304 225.346 230.283 225.249 229.032 224.471L108.068 153.931C107.491 153.64 107.202 153.251 107.01 152.863L104.604 145.575Z" fill="#1E7742"/>
<path d="M105.663 146.741L229.705 219.03C231.053 219.808 233.074 219.905 234.325 219.225L308.327 176.084C309.482 175.404 309.385 174.238 308.038 173.364L184.092 101.075C182.744 100.298 180.723 100.2 179.472 100.881L105.47 144.021C104.219 144.701 104.315 145.964 105.663 146.741Z" fill="#2A9E59"/>
<path d="M105.663 145.964L229.705 218.253C231.053 219.03 233.073 219.127 234.324 218.447L308.327 175.307C308.712 175.113 308.904 174.821 309 174.53C309.193 175.113 309 175.696 308.327 176.084L234.324 219.225C233.17 219.905 231.053 219.808 229.705 219.03L105.759 146.741C104.893 146.256 104.508 145.478 104.7 144.895C104.796 145.284 105.085 145.673 105.663 145.964Z" fill="#DDDDDD"/>
<path d="M267.043 203.387V202.027C267.043 201.93 266.947 201.832 266.851 201.93L262.039 204.747C261.943 204.845 261.847 204.942 261.847 205.039V206.399C261.847 206.496 261.943 206.593 262.039 206.496L266.851 203.679C266.947 203.581 267.043 203.484 267.043 203.387Z" fill="#1C7540"/>
<path d="M259.922 207.565V206.205C259.922 206.108 259.826 206.011 259.73 206.108L254.918 208.925C254.822 209.023 254.726 209.12 254.726 209.217V210.577C254.726 210.674 254.822 210.771 254.918 210.674L259.73 207.857C259.826 207.857 259.922 207.662 259.922 207.565Z" fill="#1C7540"/>
<path d="M288.984 172.004L185.92 111.957C185.246 111.569 184.38 111.569 183.707 111.957L147.042 133.43C146.561 133.722 146.561 134.499 147.042 134.79L250.01 194.837C250.684 195.225 251.55 195.225 252.224 194.837L288.984 173.461C289.465 173.072 289.465 172.295 288.984 172.004Z" fill="#2ECC71"/>
<path d="M288.984 173.364L288.599 173.558L185.92 113.706C185.246 113.318 184.38 113.318 183.707 113.706L147.427 134.888L147.042 134.693C146.561 134.402 146.561 133.624 147.042 133.333L183.707 111.86C184.38 111.471 185.246 111.471 185.92 111.86L288.984 171.906C289.465 172.295 289.465 173.072 288.984 173.364Z" fill="#1E7742"/>
<path d="M180.916 117.398L270.412 169.574L274.357 167.243L184.861 115.066L180.916 117.398Z" fill="#1C7540"/>
<path d="M171.196 123.034L255.111 172.004L259.056 169.672L175.142 120.702L171.196 123.034Z" fill="#1C7540"/>
<path d="M164.845 126.726L263.675 184.343L267.621 182.109L168.791 124.491L164.845 126.726Z" fill="#1C7540"/>
<path d="M158.494 130.515L257.324 188.133L261.269 185.801L162.439 128.183L158.494 130.515Z" fill="#1C7540"/>
<path d="M152.143 134.207L250.973 191.825L254.918 189.493L156.088 131.875L152.143 134.207Z" fill="#1C7540"/>
<path d="M275.801 172.684L279.842 175.016L283.788 172.684L279.842 170.352L275.801 172.684Z" fill="#1C7540"/>
<path d="M261.751 175.89L270.027 180.748L274.068 178.416L265.792 173.558L261.751 175.89Z" fill="#1C7540"/>
<path d="M181.974 186.578L154.163 170.352C153.105 169.672 153.105 168.7 154.163 168.02L173.121 156.943C174.18 156.263 176.008 156.263 177.067 156.943L204.878 173.17C205.936 173.85 205.936 174.821 204.878 175.501L185.92 186.578C184.765 187.161 183.033 187.161 181.974 186.578Z" fill="#3EED85"/>
<path d="M204.878 174.141L177.067 157.915C176.008 157.235 174.18 157.235 173.121 157.915L154.163 168.992C153.875 169.186 153.586 169.38 153.49 169.672C153.201 169.089 153.394 168.506 154.163 168.02L173.121 156.943C174.18 156.263 176.008 156.263 177.067 156.943L204.878 173.17C205.647 173.656 205.84 174.239 205.551 174.822C205.455 174.53 205.166 174.336 204.878 174.141Z" fill="#1E7742"/>
<g opacity="0.2">
<path d="M183.803 100.978L307.749 173.267C309.097 174.044 311.118 174.141 312.369 173.461L320.645 123.034C322.569 112.346 324.975 98.2572 325.937 92.9133L262.136 55.3114C260.788 54.5341 258.767 54.4369 257.516 55.1171L183.514 98.2572C182.263 98.9373 182.456 100.2 183.803 100.978Z" fill="url(#paint1_linear)"/>
<path d="M308.134 113.9L280.323 97.6743C279.265 96.9941 279.265 96.0225 280.323 95.3424L299.281 84.2658C300.34 83.5857 302.168 83.5857 303.227 84.2658L319.201 93.3992C318.239 100.201 316.795 108.459 316.314 111.374L312.08 113.9C311.021 114.581 309.193 114.581 308.134 113.9Z" fill="url(#paint2_linear)"/>
<path d="M319.201 94.3707L303.227 85.2375C302.168 84.5573 300.34 84.5573 299.281 85.2375L280.323 96.3139C280.035 96.5082 279.746 96.7025 279.65 96.994C279.361 96.411 279.554 95.8281 280.323 95.3423L299.281 84.2658C300.34 83.5857 302.168 83.5857 303.227 84.2658L319.682 93.8849C319.682 93.8849 319.49 93.7877 319.201 94.3707C319.105 94.1764 319.586 94.565 319.201 94.3707Z" fill="#9198DB"/>
<path d="M313.908 124.005L240.291 79.1161C239.617 78.7274 238.751 78.7274 238.078 79.1161L201.413 100.589C200.932 100.881 200.932 101.658 201.413 101.949L304.381 161.996C305.055 162.385 305.921 162.385 306.595 161.996L313.427 129.835C313.908 129.544 313.427 125.949 313.908 124.005Z" fill="#ADB1F2"/>
<path d="M314.389 123.034V124.005L240.291 80.9622C239.617 80.5735 238.751 80.5735 238.078 80.9622L201.798 102.144L201.413 101.949C200.932 101.658 200.932 100.881 201.413 100.589L238.078 79.1161C238.751 78.7274 239.617 78.7274 240.291 79.1161L314.389 122.062C314.967 122.354 314.967 122.742 314.389 123.034Z" fill="#9198DB"/>
<path d="M210.94 99.1318L300.724 151.405L297.164 153.543L207.38 101.172L210.94 99.1318Z" fill="#24126A"/>
<path d="M220.371 93.5934L305.729 143.341L302.168 145.381L216.81 95.731L220.371 93.5934Z" fill="#24126A"/>
<path d="M226.337 90.1926L311.502 140.037L311.021 143.924L222.777 92.2331L226.337 90.1926Z" fill="#24126A"/>
<path d="M232.304 86.6949L312.465 133.722L311.984 137.608L228.743 88.7353L232.304 86.6949Z" fill="#24126A"/>
<path d="M238.559 83.5188L313.908 127.406L312.946 131.293L234.998 85.5592L238.559 83.5188Z" fill="#24126A"/>
</g>
<path d="M310.733 83.8772L313.138 85.4319L313.331 83.5857L311.021 82.031L310.733 83.8772Z" fill="#1D723F"/>
<path d="M308.712 95.9255L311.118 97.4801L312.85 86.9864L310.444 85.5289L308.712 95.9255Z" fill="#1D723F"/>
<path d="M307.846 101.658L310.252 103.213L310.829 99.1317L308.519 97.5771L307.846 101.658Z" fill="#1D723F"/>
<path d="M306.883 107.682L309.193 109.237L309.867 105.059L307.557 103.504L306.883 107.682Z" fill="#1D723F"/>
<path d="M306.21 87.375L308.616 88.8324L309.289 84.7516L306.883 83.197L306.21 87.375Z" fill="#1D723F"/>
<path d="M304.959 95.2451L307.365 96.7997L308.327 90.6785L305.921 89.1239L304.959 95.2451Z" fill="#1D723F"/>
<path d="M303.804 102.532L306.114 104.087L306.98 98.8402L304.574 97.2856L303.804 102.532Z" fill="#1D723F"/>
<path d="M305.921 113.609L308.231 115.163L308.904 111.083L306.595 109.528L305.921 113.609Z" fill="#1D723F"/>
<path d="M307.172 81.5453L309.578 83.0999L309.866 81.351L307.461 79.7964L307.172 81.5453Z" fill="#1D723F"/>
<path d="M303.13 118.273L307.365 120.993L307.653 119.244L303.419 116.621L303.13 118.273Z" fill="#1D723F"/>
<path d="M156.28 251.871L59.375 195.42C58.6051 194.934 58.2202 194.254 58.2202 193.574C58.2202 192.699 58.7976 191.922 59.7599 191.339L79.8724 179.582C81.4121 178.708 83.6254 178.611 84.9727 179.388L181.782 235.839C182.552 236.325 182.937 237.005 182.937 237.686C182.937 238.56 182.359 239.337 181.397 239.92L161.381 251.677C160.515 252.163 159.552 252.357 158.494 252.357C157.724 252.454 156.858 252.26 156.28 251.871ZM80.8347 181.331L60.626 192.991C60.1449 193.282 60.0486 193.477 60.0486 193.574C60.0486 193.574 60.1448 193.671 60.3373 193.768L157.147 250.219C157.916 250.705 159.456 250.608 160.418 250.025L180.531 238.269C181.012 237.977 181.108 237.783 181.108 237.686C181.108 237.686 181.012 237.588 180.82 237.491L84.0104 181.04C83.6254 180.845 83.1443 180.748 82.6631 180.748C81.9895 180.845 81.3159 180.943 80.8347 181.331Z" fill="#2ECC71"/>
<path d="M98.7339 146.935C101.236 148.393 103.642 150.53 105.855 152.959C108.838 143.34 117.884 140.328 128.662 146.547C137.515 151.696 145.31 161.898 149.352 172.683C150.699 172.683 152.239 173.169 153.779 174.141C159.552 177.541 164.268 185.703 164.268 192.504C164.268 192.602 164.268 192.796 164.268 192.893C165.904 192.99 167.732 193.573 169.657 194.739C177.067 199.014 183.033 209.605 183.033 218.155C183.033 226.803 177.067 230.301 169.657 225.928L98.7339 184.634C89.7843 179.387 82.567 166.756 82.567 156.263C82.567 145.964 89.7843 141.786 98.7339 146.935Z" fill="url(#paint3_linear)"/>
<path d="M98.7338 146.936C100.177 147.81 101.621 148.879 102.968 150.045L110.859 145.381C115.189 142.272 121.541 142.466 128.566 146.547C137.419 151.697 145.214 161.899 149.256 172.684C150.603 172.684 152.143 173.17 153.682 174.141C159.456 177.542 164.171 185.704 164.171 192.505C164.171 192.602 164.171 192.796 164.171 192.894C165.807 192.991 167.636 193.574 169.56 194.74C176.97 199.015 182.937 209.605 182.937 218.156C182.937 222.431 181.493 225.443 179.087 226.9H178.991L159.552 238.268L155.318 217.67L98.5413 184.635C89.5918 179.388 82.3744 166.757 82.3744 156.263C82.5669 145.964 89.7842 141.786 98.7338 146.936Z" fill="url(#paint4_radial)"/>
<path d="M67.5547 157.429L87.2822 145.867C90.2654 144.118 94.3072 144.312 98.8301 146.936C100.274 147.81 101.717 148.879 103.064 150.045L110.955 145.381C115.286 142.272 121.637 142.466 128.662 146.547C137.515 151.697 145.31 161.899 149.352 172.684C150.699 172.684 152.239 173.17 153.778 174.141C159.552 177.542 164.268 185.704 164.268 192.505C164.268 192.602 164.268 192.796 164.268 192.894C165.904 192.991 167.732 193.574 169.657 194.74C177.067 199.015 183.033 209.605 183.033 218.156C183.033 222.431 181.589 225.443 179.184 226.9H179.087L159.649 238.268L155.414 217.67L98.6376 184.635C91.4202 180.36 85.2614 171.226 83.1443 162.385L67.5547 157.429Z" fill="#2ECC71"/>
<path d="M79.295 158.401C81.797 159.858 84.2028 161.996 86.4162 164.425C89.3994 154.806 98.4452 151.794 109.223 158.012C118.076 163.162 125.871 173.364 129.913 184.149C131.26 184.149 132.8 184.635 134.34 185.606C140.114 189.007 144.829 197.169 144.829 203.97C144.829 204.067 144.829 204.262 144.829 204.359C146.465 204.456 148.293 205.039 150.218 206.205C157.628 210.48 163.594 221.071 163.594 229.621C163.594 238.268 157.628 241.766 150.218 237.394L79.295 196.1C70.3454 190.853 63.1281 178.222 63.1281 167.729C63.1281 157.429 70.3454 153.154 79.295 158.401Z" fill="#87E8AE"/>
<path d="M85.7426 164.814C83.6255 162.385 81.2197 160.247 78.6214 158.79C74.291 156.263 70.2493 155.972 67.3623 157.526C70.3455 155.486 74.5797 155.68 79.295 158.401C81.7008 159.761 84.0104 161.704 86.0312 164.036C85.935 164.328 85.8388 164.522 85.7426 164.814Z" fill="#DDDDDD"/>
<path d="M163.017 230.107C163.017 221.459 157.05 210.966 149.641 206.691C147.716 205.525 145.887 204.942 144.252 204.845C144.252 204.747 144.252 204.553 144.252 204.456C144.252 197.654 139.536 189.493 133.762 186.092C132.126 185.121 130.683 184.732 129.336 184.635C125.198 173.85 117.499 163.648 108.646 158.498C102.198 154.709 96.2318 154.32 91.9976 156.749C96.3281 153.931 102.487 154.126 109.319 158.109C118.173 163.259 125.967 173.461 130.009 184.246C131.356 184.246 132.896 184.732 134.436 185.704C140.21 189.104 144.925 197.266 144.925 204.067C144.925 204.164 144.925 204.359 144.925 204.456C146.561 204.553 148.39 205.136 150.314 206.302C157.724 210.577 163.69 221.168 163.69 229.718C163.69 234.188 162.151 237.2 159.552 238.56C161.67 237.005 163.017 234.09 163.017 230.107Z" fill="#DDDDDD"/>
<path d="M217.869 274.899L219.601 273.733L171.1 244.195L170.138 245.847L217.869 274.899Z" fill="#2ECC71"/>
<path d="M288.311 273.247C287.926 273.247 287.637 273.053 287.445 272.761C287.156 272.275 287.348 271.692 287.83 271.401L329.113 248.762L269.257 213.589C268.776 213.298 268.679 212.715 268.872 212.229C269.161 211.743 269.738 211.646 270.219 211.84L331.519 247.887C331.808 248.082 332 248.373 332 248.762C332 249.151 331.808 249.442 331.519 249.636L288.696 273.052C288.599 273.15 288.407 273.247 288.311 273.247Z" fill="#2ECC71"/>
<path d="M255.014 335.431C254.822 335.431 254.726 335.431 254.533 335.334L184.573 294.526C184.284 294.331 184.092 294.04 184.092 293.651C184.092 293.262 184.284 292.971 184.573 292.777L254.533 251.968C254.822 251.774 255.207 251.774 255.496 251.968L325.456 292.777C325.745 292.971 325.937 293.262 325.937 293.651C325.937 294.04 325.745 294.331 325.456 294.526L255.496 335.334C255.399 335.334 255.207 335.431 255.014 335.431ZM186.979 293.651L255.014 333.293L323.05 293.651L255.014 254.009L186.979 293.651Z" fill="#2ECC71"/>
<path d="M255.014 320.76L301.494 293.651L255.014 266.543L208.631 293.651L255.014 320.76Z" fill="#2ECC71"/>
<path d="M243.178 278.396C243.178 278.396 242.408 279.174 241.542 280.145C240.676 281.117 238.462 282.38 237.404 282.963C236.345 283.546 232.015 286.753 231.053 290.056C230.09 293.36 233.17 293.845 236.345 293.36C239.521 292.874 242.6 289.959 243.467 288.89C244.333 287.821 247.412 285.489 251.358 283.546C255.303 281.603 252.994 278.785 252.994 278.785L243.178 278.396Z" fill="#160A5B"/>
<path d="M271.951 288.89C271.951 288.89 272.529 290.348 272.721 292.291C272.817 294.234 273.01 298.315 273.106 299.481C273.202 300.647 273.106 303.659 270.989 306.379C268.776 309.1 267.717 310.266 264.926 309.1C262.136 307.934 262.328 303.173 262.905 300.744C263.483 298.315 264.06 292.874 264.06 292.291C264.06 291.708 264.253 291.319 264.253 291.319L271.951 288.89Z" fill="#160A5B"/>
<path d="M234.902 222.431C234.902 222.431 234.998 244.098 239.714 255.758C239.714 255.758 243.082 265.96 243.178 278.008C243.178 278.008 242.312 280.048 243.467 281.797C244.621 283.546 251.935 285.198 253.282 279.757C254.629 274.218 254.437 263.822 253.186 259.45C251.935 255.077 254.052 243.224 254.052 243.224C254.052 243.224 256.073 244.584 258.479 253.231C260.885 261.879 262.713 265.182 263.579 267.611C264.445 270.041 264.926 284.518 264.156 291.611C264.156 291.611 270.123 292.582 271.855 289.765C273.683 286.947 274.549 272.081 274.261 267.32C273.972 262.559 272.336 247.304 272.721 242.641C273.106 237.977 274.165 234.188 273.202 229.427C272.24 224.666 241.157 213.492 241.157 213.492L234.902 222.431Z" fill="#24126A"/>
<path d="M272.721 242.641C273.106 237.977 274.165 234.187 273.202 229.427C272.817 227.678 268.198 224.957 262.617 222.334C252.994 221.168 240.868 219.905 240.002 220.002C239.232 220.099 237.211 220.779 235.576 221.459L234.902 222.431C234.902 222.431 234.902 223.791 234.998 225.929C237.211 226.706 241.542 226.026 241.542 226.026C242.119 227.58 245.68 233.022 250.299 235.548C254.918 237.977 268.583 237.491 269.353 238.463C270.123 239.337 269.93 251.288 269.834 252.746C269.738 254.3 270.893 263.822 271.951 272.178C273.01 280.437 270.893 290.445 270.796 290.833C271.278 290.542 271.662 290.25 271.951 289.764C273.78 286.947 274.646 272.081 274.357 267.32C273.972 262.559 272.336 247.304 272.721 242.641Z" fill="#160A5B"/>
<path d="M247.22 151.794C247.22 151.794 240.195 153.251 237.885 153.737C237.5 153.834 237.212 154.126 237.019 154.417C236.345 156.166 234.517 161.413 235.576 169.38C236.923 179.096 236.249 185.509 236.249 185.509L232.592 202.318C232.592 202.318 228.166 218.35 228.454 218.836C228.839 219.322 237.596 226.415 240.387 225.54C243.178 224.666 242.312 223.014 242.312 223.014C242.312 223.014 244.333 234.771 254.341 234.868C264.445 234.965 272.625 235.256 274.453 231.176C276.282 227.095 274.549 209.8 272.914 202.901C271.278 196.003 267.428 182.303 267.428 182.303L282.537 166.174L270.219 156.166C270.219 156.166 267.332 150.434 266.177 149.656C264.926 148.879 264.253 149.462 264.253 149.462L247.22 151.794Z" fill="#453C9E"/>
<path d="M240.676 221.751C240.676 222.334 240.291 223.208 238.463 223.791C236.538 224.374 231.823 221.362 228.647 219.03C230.187 220.391 237.789 226.22 240.387 225.443C240.965 225.249 241.349 225.054 241.638 224.86C241.157 223.597 240.868 222.431 240.676 221.751Z" fill="#0F632D"/>
<path d="M274.453 229.815C272.529 234.09 263.868 233.896 253.282 233.702C250.588 233.702 248.471 232.827 246.738 231.661C248.567 233.507 250.973 234.868 254.437 234.868C264.541 234.965 272.721 235.256 274.549 231.175C275.127 229.815 275.319 227.095 275.319 223.694C275.223 226.414 274.934 228.649 274.453 229.815Z" fill="#0F632D"/>
<path d="M265.889 149.559C265.889 149.559 268.391 152.765 264.541 156.943C262.232 159.47 258.094 165.008 254.629 170.838C252.416 174.433 250.492 176.376 249.337 179.485C249.337 179.485 249.24 175.793 249.24 169.963C249.24 164.522 249.337 158.887 249.625 157.429C250.203 154.417 263.098 148.004 265.889 149.559Z" fill="#F0F6FF"/>
<path d="M256.073 158.79C256.073 158.79 254.726 159.567 254.245 159.47C253.763 159.373 252.32 157.915 252.32 157.915C252.32 157.915 248.663 157.721 248.278 156.166C247.893 154.612 247.701 152.96 247.316 152.183C246.931 151.308 245.488 147.324 245.488 145.77C245.488 144.215 245.68 141.3 245.006 139.746C244.333 138.191 243.852 123.034 258.286 123.811C272.721 124.588 267.909 139.649 267.909 139.649C267.909 139.649 268.968 140.134 268.294 142.078C267.621 144.021 267.428 144.215 267.14 145.187C266.755 146.158 266.658 146.741 265.696 147.519L265.407 149.268C265.407 149.268 265.985 151.988 264.156 154.612C262.328 157.332 256.073 158.79 256.073 158.79Z" fill="#FCD1C5"/>
<path d="M237.404 153.834C237.404 153.834 235.864 154.029 230.571 166.66C227.588 173.655 223.065 180.943 222.103 186.189C221.045 191.436 221.429 197.072 222.488 197.557C223.45 197.946 241.253 205.233 246.835 207.468C247.123 207.565 247.508 207.371 247.508 207.079L249.24 198.335L238.174 193.671C238.174 193.671 236.153 190.95 234.132 189.979C234.132 189.979 236.442 185.898 236.345 184.732C236.249 183.566 236.827 171.809 235.672 167.048C234.517 162.19 237.404 153.834 237.404 153.834Z" fill="#24126A"/>
<path d="M243.178 187.647C243.178 187.647 241.638 186.578 241.253 186.384C240.868 186.189 238.847 185.509 238.462 185.315C238.174 185.218 237.019 185.218 236.345 185.315C236.153 185.315 235.96 185.412 235.864 185.606C235.383 186.481 233.94 189.007 234.132 190.076C234.132 190.076 237.789 192.505 238.174 193.574L238.751 193.671C238.751 193.671 241.349 188.327 243.178 187.647Z" fill="#FCD1C5"/>
<path d="M272.913 202.901C272.529 201.249 272.047 199.209 271.47 197.071L248.663 206.302C248.663 206.302 255.207 214.852 267.14 214.658C270.411 214.561 272.817 213.492 274.549 212.52C274.068 208.634 273.491 205.136 272.913 202.901Z" fill="#24126A"/>
<path d="M282.633 166.174C282.633 166.174 276.667 166.854 271.663 174.433C266.659 182.011 262.905 190.853 262.905 190.853L262.713 191.825C262.232 194.448 259.441 195.906 257.035 194.74C252.031 192.311 244.525 188.618 243.178 187.55C243.178 187.55 238.655 189.979 237.212 195.906C236.153 200.666 236.345 200.666 236.345 200.666C236.345 200.666 256.169 210.674 263.964 210.771C271.759 210.868 282.152 185.412 283.403 180.068C284.654 174.724 286.001 167.729 282.633 166.174Z" fill="#24126A"/>
<path d="M282.633 166.174C282.633 166.174 276.667 166.854 271.663 174.433C266.659 182.011 262.905 190.853 262.905 190.853L262.713 191.825C262.232 194.448 259.441 195.906 257.035 194.74C252.031 192.311 244.525 188.618 243.178 187.55C243.178 187.55 238.655 189.979 237.212 195.906C236.153 200.666 236.345 200.666 236.345 200.666C236.345 200.666 256.169 210.674 263.964 210.771C271.759 210.868 282.152 185.412 283.403 180.068C284.654 174.724 286.001 167.729 282.633 166.174Z" fill="#4846A5"/>
<path d="M259.826 196.003C259.826 196.003 262.328 198.432 263.483 197.169C264.638 195.906 264.253 195.711 264.253 195.711C264.253 195.711 266.562 195.711 266.851 194.351C267.14 192.893 268.294 193.671 268.391 192.116C268.487 190.464 266.562 190.756 266.562 190.756L259.826 196.003Z" fill="#453C9E"/>
<path d="M256.843 194.642C256.843 194.642 257.516 193.962 258.479 193.282C259.441 192.505 260.885 189.396 261.173 189.104C261.462 188.813 264.541 186.578 265.985 186.578C267.428 186.578 266.274 188.23 265.985 188.424C265.6 188.618 264.156 189.298 264.156 189.298C264.156 189.298 262.617 190.464 262.52 190.659C262.328 190.853 266.562 190.464 267.236 190.853C267.909 191.242 267.717 192.408 267.236 192.699C266.755 192.991 266.37 192.991 266.37 192.991C266.37 192.991 266.851 194.254 265.504 194.837C264.253 195.42 263.964 195.031 263.964 195.031C263.964 195.031 263.771 197.266 261.751 196.78L256.843 194.642Z" fill="#FCD1C5"/>
<path d="M245.006 131.973C245.006 131.973 242.985 137.997 247.99 136.442C252.994 134.888 257.613 132.07 259.152 133.236C260.307 134.11 260.211 136.637 260.115 137.802C260.115 138.191 260.211 138.58 260.403 138.968L261.847 141.203C262.039 141.495 262.136 141.786 262.136 142.078L262.232 143.632C262.232 144.021 262.521 144.312 262.905 144.312H263.29C263.675 144.312 263.964 144.118 264.06 143.729L264.541 141.495C264.541 141.495 265.792 138.58 268.198 139.746C268.198 139.746 269.93 137.511 269.449 132.75C269.064 127.892 267.043 122.937 257.709 121.868C248.182 120.799 245.006 131.973 245.006 131.973Z" fill="#AA8383"/>
<path d="M258.479 164.133L257.131 162.968C257.131 162.968 255.784 164.036 255.303 165.202C254.726 166.368 255.207 169.963 255.207 169.963L254.726 170.643L254.244 169.672L253.956 165.299C253.956 165.299 254.533 162.093 254.533 161.996C254.629 161.899 257.228 162.385 257.228 162.385C257.228 162.385 257.998 163.259 258.479 164.133Z" fill="#C4CCD6"/>
<path d="M251.839 159.664C251.839 159.664 250.299 159.761 249.625 160.247C249.625 160.247 251.165 160.345 251.454 160.442C251.743 160.442 251.839 159.664 251.839 159.664Z" fill="#C4CCD6"/>
<path d="M254.726 160.15L257.131 162.579C257.131 162.579 254.918 163.55 254.244 165.494C254.244 165.494 251.55 165.98 251.261 164.911C251.069 163.939 251.358 161.413 251.069 160.247C250.78 159.178 254.726 160.15 254.726 160.15Z" fill="#24126A"/>
<path d="M251.358 164.814C251.358 164.814 250.876 166.854 250.299 167.728C249.722 168.603 249.241 169.477 249.241 169.477L249.048 181.623C249.048 181.623 253.667 172.587 254.726 170.741C254.726 170.741 254.726 166.271 254.245 165.494C253.86 164.619 251.358 164.814 251.358 164.814Z" fill="#24126A"/>
<path d="M263.675 147.227C260.596 155.583 252.32 157.915 252.32 157.915C252.32 157.915 253.763 159.373 254.244 159.47C254.726 159.567 256.073 158.79 256.073 158.79C256.073 158.79 262.328 157.429 264.253 154.806C266.081 152.182 265.504 149.462 265.504 149.462L265.792 147.713C264.349 148.004 263.675 147.227 263.675 147.227Z" fill="#E2B1A6"/>
<path d="M270.123 157.332C270.123 157.332 268.872 161.316 268.776 161.413C268.583 161.607 265.889 161.219 265.889 161.219L267.14 163.745C267.14 163.745 252.994 178.319 250.01 186.189C250.01 186.189 256.747 176.182 268.487 164.425L266.947 161.899L269.738 162.482L270.123 157.332Z" fill="#24126A"/>
<path d="M247.605 153.154L246.835 153.931L247.701 154.806L245.103 157.041C245.103 157.041 243.948 173.267 246.738 184.149C246.738 184.149 242.793 174.141 244.14 156.555L246.931 154.709L246.065 153.834L247.605 153.154Z" fill="#24126A"/>
<path d="M254.052 243.224L250.684 239.434C252.224 241.863 250.107 252.454 249.818 254.883C249.529 257.312 251.55 262.462 252.127 268.389C252.801 274.316 250.973 282.769 250.973 282.769C252.031 282.186 252.801 281.214 253.186 279.66C254.533 274.121 254.341 263.725 253.09 259.353C251.935 255.077 254.052 243.224 254.052 243.224Z" fill="#160A5B"/>
<path d="M263.964 210.771C271.759 210.868 282.152 185.412 283.403 180.068C283.595 179.194 283.788 178.222 283.98 177.348C283.98 177.445 281.767 182.886 279.746 187.841C277.629 192.796 266.947 207.565 261.654 208.342C256.843 209.12 239.906 200.569 236.634 198.918C236.249 200.764 236.442 200.764 236.442 200.764C236.442 200.764 256.169 210.674 263.964 210.771Z" fill="#0F632D"/>
<path d="M263.098 144.215C263.483 144.215 263.771 144.021 263.868 143.632L264.349 141.397C264.349 141.397 265.6 138.482 268.006 139.648C268.006 139.648 269.642 137.511 269.353 133.041C266.466 137.122 260.307 138.871 260.307 138.871L261.751 141.106C261.943 141.397 262.039 141.689 262.039 141.98L262.136 143.535C262.136 143.924 262.424 144.215 262.809 144.215H263.098Z" fill="#936D6D"/>
<path d="M196.794 34.1301L241.735 60.364C243.852 61.6271 245.488 64.8334 245.488 67.6511V110.888C245.488 113.706 243.755 114.969 241.735 113.803L188.614 82.9056L196.794 34.1301Z" fill="#0F632D"/>
<path d="M155.03 9.45082L157.243 7.89622C157.917 7.41041 158.879 7.31324 159.937 7.99338L236.442 52.591C238.559 53.8541 240.195 57.0605 240.195 59.8782V103.115C240.195 104.573 239.714 105.642 238.944 106.128L236.634 107.779L236.538 106.128C236.442 106.128 236.442 106.03 236.346 106.03L159.841 61.4328C157.724 60.1697 156.088 56.9633 156.088 54.1456V10.8111C156.088 10.4224 156.088 10.0338 156.184 9.64515L155.03 9.45082Z" fill="#1E7742"/>
<path d="M240.002 58.0321L219.794 69.7887L214.693 66.8738L237.597 53.4655C238.751 54.6314 239.617 56.3803 240.002 58.0321Z" fill="#34E27A"/>
<path d="M157.628 62.9874L234.132 107.585C236.249 108.848 237.885 107.488 237.885 104.67V61.4328C237.885 58.615 236.153 55.3115 234.132 54.1456L157.628 9.54795C155.511 8.28484 153.875 9.64512 153.875 12.4628V55.7002C153.875 58.5179 155.607 61.8214 157.628 62.9874Z" fill="#2ECC71"/>
<path d="M237.5 104.961V61.7241C237.5 58.9064 235.768 55.6029 233.747 54.437L157.243 9.83948C156.377 9.35366 155.703 9.2565 155.03 9.54799C155.703 9.06217 156.665 9.06218 157.628 9.64515L234.132 54.2426C236.249 55.5057 237.885 58.7121 237.885 61.5298V104.767C237.885 106.516 237.308 107.585 236.346 107.973C237.019 107.39 237.5 106.419 237.5 104.961Z" fill="white"/>
<path d="M164.749 35.7818L227.203 72.1206C227.685 72.4121 228.07 72.5093 228.358 72.1206C228.358 72.0235 228.358 71.9263 228.358 71.8291V62.3072C228.358 61.5299 227.877 60.6554 227.396 60.3639L164.46 23.7336C164.364 23.7336 164.364 23.6365 164.268 23.6365C163.787 23.7336 163.787 24.1223 163.787 24.8024L163.594 33.9357C163.69 34.713 164.172 35.4903 164.749 35.7818Z" fill="white"/>
<path d="M164.653 56.5746L227.203 92.9134C227.685 93.2049 228.262 93.4964 228.358 92.9134C228.358 92.8163 228.358 92.7191 228.358 92.6219V83.1C228.358 82.3227 227.877 81.4482 227.396 81.1567L164.46 44.5265C164.364 44.5265 164.364 44.4293 164.268 44.4293C163.787 44.235 163.69 44.9151 163.69 45.5953V54.6314C163.69 55.4087 164.075 56.186 164.653 56.5746Z" fill="white"/>
<path d="M164.268 23.6366C164.268 23.7337 164.268 23.8309 164.268 23.9281V33.45C164.268 34.2273 164.749 35.1017 165.23 35.3932L228.166 72.0233C228.262 72.0233 228.262 72.0233 228.358 72.1205C228.262 72.7035 227.877 72.8978 227.396 72.6063L164.46 35.9762C163.883 35.6847 163.498 34.8102 163.498 34.0329V24.511C163.498 23.8309 163.787 23.4422 164.268 23.6366Z" fill="#DDDDDD"/>
<path d="M164.268 44.4295C164.268 44.5266 164.268 44.6238 164.268 44.721V54.2429C164.268 55.0202 164.749 55.8946 165.23 56.1861L228.166 92.8163C228.262 92.8163 228.262 92.8163 228.358 92.9135C228.262 93.4964 227.877 93.6908 227.396 93.3993L164.46 56.7691C163.883 56.4776 163.498 55.6031 163.498 54.8258V45.3039C163.498 44.6238 163.787 44.3323 164.268 44.4295Z" fill="#DDDDDD"/>
<path d="M210.363 57.8376L209.593 59.2951L208.15 57.449L209.304 56.283L207.669 54.5341L208.246 53.0766L209.786 54.9227L209.593 52.688L211.422 53.7568L211.229 55.7L212.769 55.6029L213.346 57.6433L211.71 57.449L212.769 59.8781L211.325 60.0724L210.363 57.8376Z" fill="#2ECC71"/>
<path d="M203.146 53.6598L202.376 55.1172L200.932 53.2711L202.087 52.1052L200.451 50.3562L201.029 48.8988L202.568 50.7449L202.376 48.5101L204.204 49.5789L204.012 51.5222L205.551 51.425L206.129 53.4655L204.493 53.2711L205.551 55.7002L204.108 55.8945L203.146 53.6598Z" fill="#2ECC71"/>
<path d="M195.928 49.4816L195.158 50.939L193.715 49.093L194.87 47.9271L193.234 46.1782L193.811 44.7208L195.351 46.5668L195.158 44.3322L196.987 45.4009L196.794 47.3441L198.334 47.247L198.911 49.2873L197.275 49.093L198.334 51.522L196.891 51.7163L195.928 49.4816Z" fill="#2ECC71"/>
<path d="M188.711 45.2065L187.941 46.664L186.498 44.8179L187.652 43.6519L186.016 41.903L186.594 40.4455L188.133 42.2916L187.941 40.0569L189.769 41.1257L189.577 43.0689L191.117 42.9718L191.694 45.0122L190.058 44.8179L191.117 47.247L189.673 47.4413L188.711 45.2065Z" fill="#2ECC71"/>
<path d="M181.493 41.0287L180.724 42.4861L179.28 40.64L180.435 39.4741L178.799 37.7251L179.376 36.2677L180.916 38.1138L180.724 35.879L182.552 36.9478L182.359 38.8911L183.899 38.7939L184.477 40.8343L182.841 40.64L183.899 43.0691L182.456 43.2634L181.493 41.0287Z" fill="#2ECC71"/>
<path d="M210.363 78.7277L209.593 80.1851L208.15 78.339L209.304 77.1731L207.572 75.4242L208.15 73.9668L209.689 75.8128L209.497 73.5781L211.325 74.6469L211.133 76.5901L212.673 76.493L213.25 78.5334L211.614 78.339L212.673 80.7681L211.229 80.9624L210.363 78.7277Z" fill="#2ECC71"/>
<path d="M203.146 74.4525L202.376 75.9099L200.932 74.0639L202.087 72.8979L200.451 71.149L201.029 69.6915L202.568 71.5376L202.376 69.3029L204.204 70.3717L204.012 72.3149L205.551 72.2177L206.129 74.2582L204.493 74.0639L205.551 76.4929L204.108 76.6873L203.146 74.4525Z" fill="#2ECC71"/>
<path d="M195.928 70.2744L195.158 71.7319L193.715 69.8858L194.87 68.7199L193.234 66.9709L193.811 65.5135L195.351 67.3596L195.158 65.1249L196.987 66.1937L196.794 68.1369L198.334 68.0397L198.911 70.0801L197.275 69.8858L198.334 72.3148L196.891 72.5092L195.928 70.2744Z" fill="#2ECC71"/>
<path d="M188.711 66.0964L187.941 67.5539L186.498 65.7078L187.652 64.5418L186.016 62.7929L186.594 61.3354L188.133 63.1815L187.941 60.9468L189.769 62.0156L189.577 63.9588L191.117 63.8617L191.694 65.9021L190.058 65.7078L191.117 68.1369L189.673 68.3312L188.711 66.0964Z" fill="#2ECC71"/>
<path d="M181.493 61.8212L180.724 63.2786L179.28 61.4326L180.435 60.2667L178.799 58.5178L179.376 57.0604L180.916 58.9064L180.724 56.6718L182.552 57.7405L182.359 59.6837L183.899 59.5865L184.477 61.6269L182.841 61.4326L183.899 63.8616L182.456 64.0559L181.493 61.8212Z" fill="#2ECC71"/>
<path d="M84.8765 120.507C84.5878 120.507 84.2991 120.41 84.0104 120.313L43.7855 96.7998C43.2081 96.5084 42.9194 95.9254 42.9194 95.2452C42.9194 94.6623 43.2081 94.0793 43.7855 93.6907L84.0104 70.2745C84.5878 69.983 85.2614 69.983 85.7425 70.2745L125.967 93.6907C126.545 93.9821 126.834 94.5651 126.834 95.2452C126.834 95.8282 126.545 96.4112 125.967 96.7998L85.7425 120.216C85.4538 120.41 85.1652 120.507 84.8765 120.507ZM45.0365 95.3424L84.8765 118.564L124.716 95.3424L84.8765 72.1206L45.0365 95.3424Z" fill="#2ECC71"/>
<path d="M121.06 86.7921V79.4077L84.8765 99.6175L48.6933 79.4077V86.7921L84.8765 107.876L121.06 86.7921Z" fill="#1D5D61"/>
<path d="M84.8765 100.589L48.6933 79.4078L84.8765 58.3235L121.06 79.4078L84.8765 100.589Z" fill="#2ECC71"/>
<path opacity="0.5" d="M84.8765 99.9091L49.1745 79.1162L48.6933 79.4077L84.8765 100.589L121.06 79.4077L120.578 79.1162L84.8765 99.9091Z" fill="white"/>
<path d="M84.8765 92.5247L62.4545 79.4078L84.8765 66.3881L107.202 79.4078L84.8765 92.5247Z" fill="#0F054C"/>
<path opacity="0.5" d="M84.8765 92.5247L62.4545 79.4078L84.8765 66.3881L107.202 79.4078L84.8765 92.5247Z" fill="url(#paint5_linear)"/>
<path opacity="0.5" d="M84.8766 48.1213L107.202 61.2383V79.4077L84.8766 66.3879V48.1213Z" fill="url(#paint6_linear)"/>
<path opacity="0.5" d="M84.8765 66.3879L62.4545 79.4077V61.2383L84.8765 48.1213V66.3879Z" fill="url(#paint7_linear)"/>
<path opacity="0.5" d="M84.8765 74.2582L62.4545 61.2383L84.8765 48.1213L107.202 61.2383L84.8765 74.2582Z" fill="#0D562C"/>
<path opacity="0.5" d="M84.8766 74.2583V92.5248L107.202 79.4079V61.2385L84.8766 74.2583Z" fill="#06A549"/>
<path opacity="0.5" d="M62.4545 61.2385V79.4079L84.8766 92.5248V74.2583L62.4545 61.2385Z" fill="#2ECC71"/>
<defs>
<linearGradient id="paint0_linear" x1="195.902" y1="85.3081" x2="219.166" y2="45.4016" gradientUnits="userSpaceOnUse">
<stop stop-color="#C0BFF6"/>
<stop offset="0.2938" stop-color="#C5C4F7"/>
<stop offset="0.6399" stop-color="#D3D2F9"/>
<stop offset="1" stop-color="#E9E9FD"/>
</linearGradient>
<linearGradient id="paint1_linear" x1="318.437" y1="114.281" x2="113.966" y2="114.281" gradientUnits="userSpaceOnUse">
<stop stop-color="#C0BFF6"/>
<stop offset="0.2938" stop-color="#C5C4F7"/>
<stop offset="0.6399" stop-color="#D3D2F9"/>
<stop offset="1" stop-color="#E9E9FD"/>
</linearGradient>
<linearGradient id="paint2_linear" x1="331.895" y1="99.1262" x2="279.556" y2="99.1262" gradientUnits="userSpaceOnUse">
<stop stop-color="#C0BFF6"/>
<stop offset="0.2938" stop-color="#C5C4F7"/>
<stop offset="0.6399" stop-color="#D3D2F9"/>
<stop offset="1" stop-color="#E9E9FD"/>
</linearGradient>
<linearGradient id="paint3_linear" x1="183.114" y1="206.149" x2="82.5789" y2="206.149" gradientUnits="userSpaceOnUse">
<stop stop-color="#5761D7"/>
<stop offset="0.1779" stop-color="#5C66D9"/>
<stop offset="0.3876" stop-color="#6A73DF"/>
<stop offset="0.6134" stop-color="#8289E8"/>
<stop offset="0.849" stop-color="#A3A7F5"/>
<stop offset="1" stop-color="#BCBEFF"/>
</linearGradient>
<radialGradient id="paint4_radial" cx="0" cy="0" r="1" gradientUnits="userSpaceOnUse" gradientTransform="translate(159.487 175.68) rotate(180) scale(47.9572 48.4209)">
<stop stop-color="#2B237C"/>
<stop offset="1" stop-color="#180D5B"/>
</radialGradient>
<linearGradient id="paint5_linear" x1="62.4734" y1="79.4416" x2="107.233" y2="79.4416" gradientUnits="userSpaceOnUse">
<stop stop-color="#42E8E0"/>
<stop offset="0.1507" stop-color="#43E3E0"/>
<stop offset="0.3285" stop-color="#45D5DF"/>
<stop offset="0.5199" stop-color="#49BDDD"/>
<stop offset="0.7209" stop-color="#4E9CDB"/>
<stop offset="0.9274" stop-color="#5472D8"/>
<stop offset="1" stop-color="#5761D7"/>
</linearGradient>
<linearGradient id="paint6_linear" x1="84.8531" y1="63.7928" x2="107.233" y2="63.7928" gradientUnits="userSpaceOnUse">
<stop stop-color="#42E8E0"/>
<stop offset="0.1507" stop-color="#43E3E0"/>
<stop offset="0.3285" stop-color="#45D5DF"/>
<stop offset="0.5199" stop-color="#49BDDD"/>
<stop offset="0.7209" stop-color="#4E9CDB"/>
<stop offset="0.9274" stop-color="#5472D8"/>
<stop offset="1" stop-color="#5761D7"/>
</linearGradient>
<linearGradient id="paint7_linear" x1="62.4733" y1="63.7926" x2="84.8537" y2="63.7926" gradientUnits="userSpaceOnUse">
<stop stop-color="#42E8E0"/>
<stop offset="0.1507" stop-color="#43E3E0"/>
<stop offset="0.3285" stop-color="#45D5DF"/>
<stop offset="0.5199" stop-color="#49BDDD"/>
<stop offset="0.7209" stop-color="#4E9CDB"/>
<stop offset="0.9274" stop-color="#5472D8"/>
<stop offset="1" stop-color="#5761D7"/>
</linearGradient>
</defs>
</svg>
