<svg width="250" height="331" viewBox="0 0 250 331" fill="none" xmlns="http://www.w3.org/2000/svg">
<path d="M125.07 330.137C93.0362 330.137 61.1421 323.106 36.7688 308.903C13.0919 295.122 0 276.701 0 257.154C0 237.608 13.0919 219.186 36.7688 205.405C85.5153 177 164.763 177 213.37 205.405C237.047 219.186 250 237.467 250 257.154C250 276.701 236.908 295.122 213.231 308.903C188.997 323.106 156.964 330.137 125.07 330.137ZM124.93 185.015C93.1755 185.015 61.2813 192.046 37.0474 206.249C13.649 219.889 0.835663 238.03 0.835663 257.154C0.835663 276.419 13.649 294.419 37.0474 308.059C85.5153 336.324 164.345 336.324 212.813 308.059C236.212 294.419 249.025 276.279 249.025 257.154C249.025 237.889 236.212 219.889 212.813 206.249C188.579 192.046 156.825 185.015 124.93 185.015Z" fill="#2ECC71"/>
<path d="M188.162 293.857C153.343 314.247 96.7966 314.247 61.8384 293.857C27.0194 273.466 27.0194 240.561 61.8384 220.171C96.6573 199.781 153.203 199.781 188.162 220.171C222.98 240.561 222.98 273.607 188.162 293.857Z" fill="#0F632D"/>
<path d="M181.894 54.7989L90.3895 1.50313C88.8574 0.659397 87.604 0.518781 86.4898 1.08127L80.2224 4.73744L84.2613 7.26865V223.546C84.2613 228.045 86.9076 233.248 90.2502 235.217L180.64 287.951L179.387 292.591L185.654 288.935C186.908 288.232 187.743 286.544 187.743 284.013V66.4706C187.883 61.9707 185.236 56.7677 181.894 54.7989Z" fill="#1E7742"/>
<path d="M175.487 292.31L84.1221 238.873C80.7795 236.905 78.1332 231.702 78.1332 227.202V9.79995C78.1332 5.30004 80.7795 3.33134 84.1221 5.15943L175.626 58.4552C178.969 60.4239 181.615 65.6269 181.615 70.1268V287.669C181.615 292.169 178.83 294.278 175.487 292.31Z" fill="#38E57E"/>
<path d="M181.615 287.81L78.1332 227.483V9.65918L181.615 69.9861V287.81Z" fill="#2ECC71"/>
<path opacity="0.4" d="M165.041 292.029L72.7016 238.171C69.2198 236.202 67.1306 232.405 67.1306 228.327V23.5815C67.1306 20.7691 70.1947 18.941 72.7016 20.3472L165.041 74.2055C168.523 76.1742 170.612 79.971 170.612 84.049V288.936C170.612 291.607 167.409 293.435 165.041 292.029Z" fill="#EFEFEF"/>
<path d="M166.852 292.872C166.156 292.872 165.459 292.732 164.763 292.31L72.4231 238.452C68.802 236.342 66.5735 232.405 66.5735 228.327V23.5809C66.5735 22.034 67.2699 20.7684 68.6627 20.0653C69.9162 19.3622 71.4482 19.3622 72.7017 20.0653L165.042 73.9236C168.663 76.0329 170.891 79.9703 170.891 84.0484V288.935C170.891 290.482 170.195 291.747 168.802 292.45C168.245 292.732 167.548 292.872 166.852 292.872ZM70.7518 20.2059C70.1947 20.2059 69.6376 20.3465 69.0805 20.6278C68.1056 21.1903 67.4092 22.3153 67.4092 23.4402V228.327C67.4092 232.264 69.4983 235.78 72.841 237.748L165.181 291.607C166.156 292.169 167.409 292.169 168.523 291.607C169.498 291.044 170.195 289.919 170.195 288.794V83.9078C170.195 79.9703 168.106 76.4548 164.763 74.4861L72.4231 20.6278C71.866 20.3465 71.3089 20.2059 70.7518 20.2059Z" fill="#EFEFEF"/>
<path d="M136.629 41.0181L122.98 33.0027C122.562 32.7214 122.145 32.0183 122.145 31.3152C122.145 30.7527 122.562 30.4715 122.98 30.6121L136.629 38.6275C137.047 38.9088 137.465 39.6119 137.465 40.315C137.465 41.0181 137.047 41.2993 136.629 41.0181Z" fill="#1C7540"/>
<path opacity="0.2" d="M142.201 164.625C144.011 165.75 145.543 164.625 145.543 162.094V86.439C145.543 83.9078 144.011 80.9547 142.201 79.8297L67.2702 36.0963C67.1309 36.94 66.9916 37.9244 66.9916 38.7681V120.751L142.201 164.625Z" fill="#041860"/>
<path d="M85.9331 136.641V138.469C84.4011 137.766 82.3119 137.344 79.9442 137.625C71.4484 138.188 61.5598 145.078 57.9387 152.813C56.9637 154.922 56.4066 156.891 56.5459 158.719L54.8746 158.156L56.6852 160.969C58.2172 163.359 61.2813 164.765 65.5988 164.343C74.0946 163.781 83.9832 156.891 87.6044 149.156C89.415 145.36 89.415 141.985 87.883 139.594L85.9331 136.641Z" fill="#F4A856"/>
<path d="M85.7939 146.203C82.0334 153.938 72.2841 160.687 63.7883 161.391C55.2925 161.953 51.3928 156.328 55.1532 148.594C58.9137 140.86 68.663 134.11 77.1588 133.407C85.6546 132.704 89.4151 138.469 85.7939 146.203Z" fill="#FCCC6B"/>
<path d="M85.7939 146.203C82.0334 153.938 72.2841 160.687 63.7883 161.391C55.2925 161.953 51.3928 156.328 55.1532 148.594C58.9137 140.86 68.663 134.11 77.1588 133.407C85.6546 132.704 89.4151 138.469 85.7939 146.203Z" fill="url(#paint0_radial)"/>
<path d="M75.7661 155.063C72.4234 157.453 68.3845 159 64.7633 159.281C61.2814 159.562 58.4959 158.578 57.1032 156.469C55.7104 154.359 55.7104 151.406 57.2424 148.313C60.3065 141.844 68.663 136.079 75.9053 135.516C79.3872 135.235 82.1727 136.219 83.5655 138.329C84.9582 140.438 84.9582 143.391 83.4262 146.485C81.8942 149.719 78.9694 152.672 75.7661 155.063ZM65.1811 139.875C61.8385 142.125 59.053 145.078 57.521 148.313C55.9889 151.406 55.989 154.219 57.2424 156.187C58.6352 158.156 61.1421 159.141 64.624 158.859C71.7271 158.297 79.9443 152.672 83.0084 146.203C84.5404 143.11 84.5404 140.297 83.2869 138.329C81.8942 136.36 79.3872 135.375 75.9053 135.657C72.4235 135.938 68.5237 137.625 65.1811 139.875Z" fill="#F4A856"/>
<path d="M83.2869 146.344C80.2229 152.812 71.8663 158.578 64.7633 159C57.6602 159.562 54.4569 154.641 57.5209 148.172C60.585 141.703 68.9416 135.938 76.0446 135.516C83.1477 135.094 86.351 139.875 83.2869 146.344Z" fill="url(#paint1_radial)"/>
<path d="M57.9386 148.875C61.0027 142.407 69.3592 136.641 76.4623 136.219C79.8049 135.938 82.3118 136.922 83.7046 138.61C82.4511 136.5 79.8049 135.235 76.0444 135.516C68.9414 136.079 60.5848 141.703 57.5208 148.172C55.8495 151.547 55.9888 154.5 57.5208 156.469C56.4066 154.641 56.4066 151.969 57.9386 148.875Z" fill="#F4A856"/>
<path d="M85.3763 145.641C81.6158 153.375 71.8666 160.125 63.3708 160.828C59.3318 161.109 56.2677 159.984 54.7357 157.875C56.2677 160.406 59.3317 161.812 63.7886 161.531C72.2844 160.969 82.173 154.078 85.7941 146.344C87.744 142.266 87.6047 138.891 85.7941 136.5C87.1869 138.61 87.0476 141.844 85.3763 145.641Z" fill="#FCE586"/>
<path d="M83.1475 155.344C85.0973 153.375 86.6293 151.266 87.6043 149.016C89.4148 145.219 89.4149 141.844 87.8828 139.453L85.933 136.641C85.933 136.641 85.933 136.5 85.7937 136.5L85.6544 136.36C83.9831 134.25 81.0583 132.985 76.8801 133.266C72.1447 133.688 66.8522 135.938 62.5347 139.313L77.855 155.344H83.1475Z" fill="#F4A856"/>
<path d="M132.59 86.1577L23.8161 22.7371C22.9804 22.1746 22.1447 22.1746 21.5876 22.5964L19.9163 23.5808C19.9163 23.5808 20.3341 23.5808 20.6127 23.7214C20.4734 24.1433 20.3342 24.7058 20.3342 25.4089V101.064C20.3342 103.595 21.8662 106.548 23.6768 107.673L132.451 171.094C132.59 171.234 132.869 171.234 133.008 171.375V172.219L134.68 171.234C135.376 170.812 135.794 169.828 135.794 168.422V92.6263C135.933 90.0951 134.401 87.1421 132.59 86.1577Z" fill="white"/>
<path d="M130.919 171.797L22.1449 108.377C20.3343 107.252 18.8022 104.299 18.8022 101.767V26.1127C18.8022 23.5815 20.3343 22.4565 22.1449 23.5815L130.919 87.0021C132.73 88.1271 134.262 91.0801 134.262 93.6113V169.266C134.401 171.797 132.869 172.922 130.919 171.797Z" fill="#2ECC71"/>
<path d="M48.8857 108.236L28.2729 96.2826V93.4701L48.8857 105.423V108.236Z" fill="white"/>
<path d="M74.2341 123.001L53.6212 111.048V108.236L74.2341 120.329V123.001Z" fill="white"/>
<path d="M99.582 137.907L78.9691 125.813V123.001L99.582 135.094V137.907Z" fill="white"/>
<path d="M124.93 152.672L104.318 140.579V137.766L124.93 149.86V152.672Z" fill="white"/>
<path opacity="0.2" d="M130.919 87.0022L22.2843 23.7223C20.4737 22.5974 18.9417 23.7223 18.9417 26.2535V101.908C18.9417 102.33 18.9417 102.893 19.081 103.314C24.9306 99.0957 48.3289 86.0179 93.315 111.049C109.61 120.189 123.399 118.923 134.401 113.017V93.6114C134.401 91.0802 132.869 88.1272 130.919 87.0022Z" fill="#00FF67"/>
<path opacity="0.2" d="M63.9277 83.2054C79.2481 81.2367 91.9222 76.4556 102.507 70.5494L22.2843 23.7223C20.4737 22.5974 18.9417 23.7223 18.9417 26.2535V98.6738C26.8804 92.2052 40.6687 86.2991 63.9277 83.2054Z" fill="#1D723F"/>
<path d="M88.5794 266.295L87.6045 267.842C86.7688 266.295 85.2368 264.888 83.1477 263.623C75.766 259.264 63.9276 259.264 56.546 263.482C54.4569 264.607 53.0641 266.013 52.0891 267.56L50.975 266.154V269.529C50.8357 272.341 52.6463 275.295 56.4067 277.545C63.7883 281.904 75.6268 281.904 83.0084 277.685C86.6295 275.576 88.5794 272.763 88.5794 269.951V266.295Z" fill="#F4A856"/>
<path d="M83.0084 274.029C75.6268 278.247 63.649 278.247 56.4067 273.888C49.0251 269.529 49.1644 262.638 56.4067 258.279C63.7883 254.061 75.766 254.061 83.0084 258.42C90.5293 262.779 90.39 269.67 83.0084 274.029Z" fill="#FCCC6B"/>
<path d="M83.0084 274.029C75.6268 278.247 63.649 278.247 56.4067 273.888C49.0251 269.529 49.1644 262.638 56.4067 258.279C63.7883 254.061 75.766 254.061 83.0084 258.42C90.5293 262.779 90.39 269.67 83.0084 274.029Z" fill="url(#paint2_radial)"/>
<path d="M69.9164 275.576C65.7381 275.576 61.6991 274.591 58.4958 272.763C55.4317 270.935 53.7604 268.545 53.7604 266.013C53.7604 263.482 55.4317 261.092 58.4958 259.404C64.7632 255.748 74.791 255.889 81.0585 259.545C84.1225 261.373 85.7938 263.764 85.7938 266.295C85.7938 268.826 84.1225 271.216 81.0585 272.904C77.9944 274.591 73.9554 275.576 69.9164 275.576ZM69.6378 257.154C65.5988 257.154 61.6991 257.998 58.6351 259.826C55.7103 261.514 54.0389 263.763 54.0389 266.154C54.0389 268.545 55.571 270.795 58.4958 272.623C64.6239 276.279 74.5125 276.279 80.7799 272.763C83.7047 271.076 85.376 268.826 85.376 266.435C85.376 264.045 83.844 261.795 80.9192 259.967C77.8551 257.998 73.8161 257.154 69.6378 257.154Z" fill="#F4A856"/>
<path d="M80.9193 272.763C74.7911 276.279 64.7633 276.279 58.4959 272.623C52.3677 268.966 52.3677 263.201 58.4959 259.545C64.624 256.029 74.6518 256.029 80.9193 259.685C87.1867 263.341 87.1867 269.107 80.9193 272.763Z" fill="url(#paint3_radial)"/>
<path d="M58.6349 260.389C64.7631 256.873 74.7909 256.873 81.0584 260.529C83.9832 262.217 85.5152 264.467 85.6544 266.717C85.7937 264.185 84.2617 261.654 81.0584 259.826C74.9302 256.17 64.9024 256.17 58.6349 259.685C55.4316 261.513 53.7603 264.045 54.0388 266.576C54.1781 264.185 55.7102 262.076 58.6349 260.389Z" fill="#F4A856"/>
<path d="M83.0084 273.185C75.6268 277.404 63.649 277.404 56.4067 273.045C52.9248 270.935 51.1142 268.263 50.975 265.592C50.8357 268.545 52.6463 271.498 56.4067 273.748C63.7883 278.107 75.6268 278.107 83.0084 273.888C86.9081 271.638 88.7187 268.685 88.5794 265.732C88.4401 268.545 86.6295 271.216 83.0084 273.185Z" fill="#FCE586"/>
<path d="M91.9219 261.514L90.947 263.06C90.1113 261.514 88.5793 260.107 86.4902 258.842C79.1085 254.482 67.2701 254.482 59.8885 258.701C57.7994 259.826 56.4066 261.232 55.4316 262.779L54.3175 261.373V264.748C54.1782 267.56 55.9888 270.513 59.7492 272.763C67.1308 277.123 78.9693 277.123 86.3509 272.904C89.972 270.795 91.9219 267.982 91.9219 265.17V261.514Z" fill="#F4A856"/>
<path d="M86.351 269.248C78.9693 273.466 66.9916 273.466 59.7492 269.107C52.3676 264.748 52.5069 257.857 59.7492 253.498C67.1309 249.279 79.1086 249.279 86.351 253.639C93.7326 258.139 93.7326 265.029 86.351 269.248Z" fill="#FCCC6B"/>
<path d="M86.351 269.248C78.9693 273.466 66.9916 273.466 59.7492 269.107C52.3676 264.748 52.5069 257.857 59.7492 253.498C67.1309 249.279 79.1086 249.279 86.351 253.639C93.7326 258.139 93.7326 265.029 86.351 269.248Z" fill="url(#paint4_radial)"/>
<path d="M73.1196 270.795C68.9413 270.795 64.9023 269.81 61.699 267.982C58.6349 266.154 56.9636 263.763 56.9636 261.232C56.9636 258.701 58.6349 256.31 61.699 254.623C67.9664 250.967 77.9943 251.107 84.2617 254.764C87.3257 256.592 88.997 258.982 88.997 261.513C88.997 264.045 87.3257 266.435 84.2617 268.123C81.1976 269.951 77.1586 270.795 73.1196 270.795ZM72.9803 252.373C68.9413 252.373 65.0416 253.217 61.9775 255.045C59.0527 256.732 57.3814 258.982 57.3814 261.373C57.3814 263.763 58.9135 266.013 61.8382 267.841C67.9664 271.498 77.855 271.498 84.1224 267.982C87.0472 266.295 88.7185 264.045 88.7185 261.654C88.7185 259.263 87.1865 257.014 84.2617 255.185C81.0583 253.357 77.0193 252.373 72.9803 252.373Z" fill="#F4A856"/>
<path d="M84.1224 268.123C77.9943 271.638 67.9664 271.638 61.699 267.982C55.5709 264.326 55.5709 258.56 61.699 254.904C67.8272 251.389 77.855 251.389 84.1224 255.045C90.3898 258.701 90.3898 264.467 84.1224 268.123Z" fill="url(#paint5_radial)"/>
<path d="M61.8387 255.607C67.9668 252.092 77.9947 252.092 84.2621 255.748C87.1869 257.435 88.7189 259.685 88.8581 261.935C88.9974 259.404 87.4654 256.873 84.2621 255.045C78.1339 251.389 68.1061 251.389 61.8387 254.904C58.6353 256.732 56.964 259.263 57.2426 261.795C57.3819 259.545 58.9139 257.295 61.8387 255.607Z" fill="#F4A856"/>
<path d="M86.3509 268.545C78.9693 272.763 66.9915 272.763 59.7492 268.404C56.2673 266.295 54.4567 263.623 54.3175 260.951C54.1782 263.904 55.9888 266.857 59.7492 269.107C67.1308 273.466 78.9693 273.466 86.3509 269.248C90.2506 266.998 92.0612 264.045 91.9219 261.092C91.6433 263.904 89.8328 266.576 86.3509 268.545Z" fill="#FCE586"/>
<path d="M116.713 284.716L115.738 286.263C114.902 284.716 113.37 283.31 111.281 282.044C103.9 277.685 92.0611 277.685 84.6795 281.904C82.5904 283.029 81.1976 284.435 80.2227 285.982L79.1085 284.576V287.951C78.9692 290.763 80.7798 293.716 84.5403 295.966C91.9219 300.325 103.76 300.325 111.142 296.107C114.763 293.997 116.713 291.185 116.713 288.372V284.716Z" fill="#F4A856"/>
<path d="M111.142 292.45C103.76 296.669 91.7825 296.669 84.5402 292.31C77.1586 287.951 77.2979 281.06 84.5402 276.701C91.9218 272.482 103.899 272.482 111.142 276.841C118.523 281.341 118.523 288.232 111.142 292.45Z" fill="#FCCC6B"/>
<path d="M111.142 292.45C103.76 296.669 91.7825 296.669 84.5402 292.31C77.1586 287.951 77.2979 281.06 84.5402 276.701C91.9218 272.482 103.899 272.482 111.142 276.841C118.523 281.341 118.523 288.232 111.142 292.45Z" fill="url(#paint6_radial)"/>
<path d="M97.9106 293.997C93.7323 293.997 89.6933 293.013 86.49 291.185C83.4259 289.357 81.7546 286.966 81.7546 284.435C81.7546 281.904 83.4259 279.513 86.49 277.826C92.7574 274.17 102.785 274.31 109.053 277.966C112.117 279.794 113.788 282.185 113.788 284.716C113.788 287.247 112.117 289.638 109.053 291.325C105.989 293.154 101.95 293.997 97.9106 293.997ZM97.7713 275.576C93.7323 275.576 89.8326 276.42 86.7685 278.248C83.8437 279.935 82.1724 282.185 82.1724 284.576C82.1724 286.966 83.7045 289.216 86.6293 291.044C92.7574 294.7 102.646 294.7 108.913 291.185C111.838 289.497 113.509 287.247 113.509 284.857C113.509 282.466 111.977 280.216 109.053 278.388C105.849 276.56 101.81 275.576 97.7713 275.576Z" fill="#F4A856"/>
<path d="M109.053 291.185C102.925 294.701 92.8969 294.701 86.6295 291.044C80.5014 287.388 80.5014 281.623 86.6295 277.966C92.7576 274.451 102.785 274.451 109.053 278.107C115.181 281.763 115.181 287.669 109.053 291.185Z" fill="url(#paint7_radial)"/>
<path d="M86.6295 278.81C92.7577 275.295 102.785 275.295 109.053 278.951C111.978 280.638 113.51 282.888 113.649 285.138C113.788 282.607 112.256 280.076 109.053 278.248C102.925 274.591 92.8969 274.591 86.6295 278.107C83.4262 279.935 81.7549 282.466 82.0334 284.998C82.1727 282.748 83.7048 280.498 86.6295 278.81Z" fill="#F4A856"/>
<path d="M111.142 291.747C103.76 295.966 91.7826 295.966 84.5403 291.607C81.0584 289.497 79.2478 286.826 79.1085 284.154C78.9692 287.107 80.7798 290.06 84.5403 292.31C91.9219 296.669 103.76 296.669 111.142 292.45C115.042 290.2 116.852 287.247 116.713 284.294C116.574 287.107 114.624 289.779 111.142 291.747Z" fill="#FCE586"/>
<path d="M78.9695 291.325L77.9945 292.872C77.1589 291.325 75.6268 289.919 73.5377 288.654C66.1561 284.294 54.3177 284.294 46.9361 288.513C44.847 289.638 43.4542 291.044 42.4793 292.591L41.3651 291.185V294.56C41.2258 297.372 43.0364 300.325 46.7968 302.575C54.1784 306.934 66.0168 306.934 73.3985 302.716C77.0196 300.606 78.9695 297.794 78.9695 294.982V291.325Z" fill="#F4A856"/>
<path d="M73.3986 299.06C66.017 303.278 54.0392 303.278 46.7969 298.919C39.4153 294.56 39.5546 287.669 46.7969 283.31C54.1785 279.091 66.1562 279.091 73.3986 283.451C80.9194 287.81 80.7802 294.841 73.3986 299.06Z" fill="#FCCC6B"/>
<path d="M73.3986 299.06C66.017 303.278 54.0392 303.278 46.7969 298.919C39.4153 294.56 39.5546 287.669 46.7969 283.31C54.1785 279.091 66.1562 279.091 73.3986 283.451C80.9194 287.81 80.7802 294.841 73.3986 299.06Z" fill="url(#paint8_radial)"/>
<path d="M60.3066 300.606C56.1283 300.606 52.0894 299.622 48.886 297.794C45.822 295.966 44.1507 293.575 44.1507 291.044C44.1507 288.513 45.822 286.122 48.886 284.435C55.1534 280.779 65.1813 280.919 71.4487 284.576C74.5127 286.404 76.1841 288.794 76.1841 291.325C76.1841 293.857 74.5127 296.247 71.4487 297.935C68.2453 299.763 64.3456 300.606 60.3066 300.606ZM60.0281 282.185C55.9891 282.185 52.0894 283.029 49.0253 284.857C46.1005 286.544 44.4292 288.794 44.4292 291.185C44.4292 293.575 45.9612 295.825 48.886 297.653C55.0142 301.31 64.9027 301.31 71.1701 297.794C74.0949 296.107 75.7662 293.857 75.7662 291.466C75.7662 289.076 74.2342 286.826 71.1701 284.997C68.2454 283.169 64.0671 282.185 60.0281 282.185Z" fill="#F4A856"/>
<path d="M71.3095 297.794C65.1813 301.31 55.1535 301.31 48.8861 297.653C42.7579 293.997 42.7579 288.232 48.8861 284.576C55.0142 281.06 65.0421 281.06 71.3095 284.716C77.5769 288.372 77.5769 294.279 71.3095 297.794Z" fill="url(#paint9_radial)"/>
<path d="M49.0251 285.419C55.1532 281.904 65.181 281.904 71.4485 285.56C74.3732 287.247 75.9053 289.497 76.0446 291.747C76.1839 289.216 74.6518 286.685 71.4485 284.857C65.3203 281.201 55.2925 281.201 49.0251 284.716C45.8217 286.544 44.1504 289.075 44.4289 291.607C44.5682 289.357 46.1003 287.107 49.0251 285.419Z" fill="#F4A856"/>
<path d="M73.3985 298.356C66.0168 302.575 54.0391 302.575 46.7968 298.216C43.3149 296.107 41.5043 293.435 41.3651 290.763C41.2258 293.716 43.0364 296.669 46.7968 298.919C54.1784 303.278 66.0168 303.278 73.3985 299.06C77.2982 296.81 79.1087 293.857 78.9695 290.903C78.8302 293.716 77.0196 296.388 73.3985 298.356Z" fill="#FCE586"/>
<path d="M96.7966 284.294L95.8217 285.841C94.986 284.294 93.454 282.888 91.3649 281.622C83.9832 277.263 72.1448 277.263 64.7632 281.482C62.674 282.607 61.2813 284.013 60.3063 285.56L59.1922 284.154V287.529C59.0529 290.341 60.8635 293.294 64.6239 295.544C72.0055 299.903 83.844 299.903 91.2256 295.685C94.8467 293.575 96.7966 290.763 96.7966 287.95V284.294Z" fill="#F4A856"/>
<path d="M91.2254 292.029C83.8438 296.247 71.8661 296.247 64.6237 291.888C57.2421 287.529 57.2421 280.638 64.6237 276.279C72.0054 272.06 83.9831 272.06 91.2254 276.42C98.7463 280.919 98.6071 287.81 91.2254 292.029Z" fill="#FCCC6B"/>
<path d="M91.2254 292.029C83.8438 296.247 71.8661 296.247 64.6237 291.888C57.2421 287.529 57.2421 280.638 64.6237 276.279C72.0054 272.06 83.9831 272.06 91.2254 276.42C98.7463 280.919 98.6071 287.81 91.2254 292.029Z" fill="url(#paint10_radial)"/>
<path d="M78.1336 293.575C73.9554 293.575 69.9163 292.591 66.713 290.763C63.6489 288.935 61.9776 286.544 61.9776 284.013C61.9776 281.482 63.6489 279.091 66.713 277.404C72.9804 273.748 83.0083 273.888 89.2757 277.545C92.3398 279.373 94.0111 281.763 94.0111 284.294C94.0111 286.825 92.3398 289.216 89.2757 290.904C86.2116 292.732 82.1726 293.575 78.1336 293.575ZM77.8551 275.154C73.8161 275.154 69.9164 275.998 66.8523 277.826C63.9275 279.513 62.2562 281.763 62.2562 284.154C62.2562 286.544 63.7882 288.794 66.713 290.622C72.8411 294.278 82.7297 294.278 88.9971 290.763C91.9219 289.075 93.5933 286.826 93.5933 284.435C93.5933 282.044 92.0612 279.794 89.1364 277.966C86.0724 276.138 82.0333 275.154 77.8551 275.154Z" fill="#F4A856"/>
<path d="M89.136 290.904C83.0079 294.419 72.98 294.419 66.7126 290.763C60.5845 287.107 60.5845 281.341 66.7126 277.685C72.8408 274.17 82.8686 274.17 89.136 277.826C95.4034 281.482 95.4034 287.247 89.136 290.904Z" fill="url(#paint11_radial)"/>
<path d="M66.8521 278.388C72.9802 274.873 83.0081 274.873 89.2755 278.529C92.2003 280.216 93.7323 282.466 93.8716 284.716C94.0108 282.185 92.4788 279.654 89.2755 277.826C83.1474 274.17 73.1195 274.17 66.8521 277.685C63.6488 279.513 61.9775 282.044 62.256 284.576C62.3953 282.326 63.9273 280.076 66.8521 278.388Z" fill="#F4A856"/>
<path d="M91.2256 291.325C83.844 295.544 71.8662 295.544 64.6239 291.185C61.142 289.075 59.3314 286.404 59.1922 283.732C59.0529 286.685 60.8635 289.638 64.6239 291.888C72.0055 296.247 83.844 296.247 91.2256 292.029C95.1253 289.779 96.9359 286.826 96.7966 283.872C96.6573 286.685 94.8467 289.357 91.2256 291.325Z" fill="#FCE586"/>
<path d="M101.671 280.498L100.696 282.044C99.8606 280.498 98.3286 279.091 96.2395 277.826C88.8579 273.467 77.0194 273.467 69.6378 277.685C67.5487 278.81 66.1559 280.216 65.181 281.763L64.0668 280.357V283.732C63.9275 286.544 65.7381 289.497 69.4985 291.747C76.8801 296.107 88.7186 296.107 96.1002 291.888C99.7213 289.779 101.671 286.966 101.671 284.154V280.498Z" fill="#F4A856"/>
<path d="M96.1 288.232C88.7184 292.45 76.7407 292.45 69.4984 288.091C62.1168 283.732 62.1168 276.841 69.4984 272.482C76.88 268.263 88.8577 268.263 96.1 272.623C103.621 277.123 103.482 284.013 96.1 288.232Z" fill="#FCCC6B"/>
<path d="M96.1 288.232C88.7184 292.45 76.7407 292.45 69.4984 288.091C62.1168 283.732 62.1168 276.841 69.4984 272.482C76.88 268.263 88.8577 268.263 96.1 272.623C103.621 277.123 103.482 284.013 96.1 288.232Z" fill="url(#paint12_radial)"/>
<path d="M83.0084 289.779C78.8301 289.779 74.7911 288.794 71.5877 286.966C68.5237 285.138 66.8524 282.748 66.8524 280.216C66.8524 277.685 68.5237 275.295 71.5877 273.607C77.8551 269.951 87.883 270.091 94.1504 273.748C97.2145 275.576 98.8858 277.966 98.8858 280.498C98.8858 283.029 97.2145 285.419 94.1504 287.107C91.0864 288.935 87.0474 289.779 83.0084 289.779ZM82.7298 271.357C78.6908 271.357 74.7911 272.201 71.727 274.029C68.8022 275.716 67.1309 277.966 67.1309 280.357C67.1309 282.748 68.6629 284.998 71.5877 286.826C77.7159 290.482 87.6045 290.482 93.8719 286.966C96.7967 285.279 98.468 283.029 98.468 280.638C98.468 278.248 96.9359 275.998 94.0111 274.17C90.9471 272.341 86.9081 271.357 82.7298 271.357Z" fill="#F4A856"/>
<path d="M94.0107 286.966C87.8826 290.482 77.8548 290.482 71.5874 286.826C65.4592 283.17 65.4592 277.404 71.5874 273.748C77.7155 270.232 87.7433 270.232 94.0107 273.888C100.278 277.685 100.278 283.451 94.0107 286.966Z" fill="url(#paint13_radial)"/>
<path d="M71.7267 274.591C77.8548 271.076 87.8827 271.076 94.1501 274.732C97.0749 276.42 98.6069 278.669 98.7462 280.919C98.8855 278.388 97.3534 275.857 94.1501 274.029C88.022 270.373 77.9941 270.373 71.7267 273.888C68.5234 275.716 66.8521 278.248 67.1306 280.779C67.2699 278.529 68.8019 276.279 71.7267 274.591Z" fill="#F4A856"/>
<path d="M96.1002 287.529C88.7186 291.747 76.7409 291.747 69.4985 287.388C66.0166 285.279 64.2061 282.607 64.0668 279.935C63.9275 282.888 65.7381 285.841 69.4985 288.091C76.8801 292.45 88.7186 292.45 96.1002 288.232C99.9999 285.982 101.81 283.029 101.671 280.076C101.532 282.888 99.7213 285.56 96.1002 287.529Z" fill="#FCE586"/>
<path d="M104.317 273.185L103.342 274.732C102.507 273.185 100.975 271.779 98.8856 270.514C91.504 266.154 79.6655 266.154 72.2839 270.373C70.1948 271.498 68.8021 272.904 67.8271 274.451L66.7129 273.045V276.42C66.5736 279.232 68.3842 282.185 72.1446 284.435C79.5263 288.794 91.3647 288.794 98.7463 284.576C102.367 282.466 104.317 279.654 104.317 276.842V273.185Z" fill="#F4A856"/>
<path d="M98.7463 280.92C91.3647 285.138 79.387 285.138 72.1446 280.779C64.763 276.42 64.9023 269.529 72.1446 265.17C79.5262 260.951 91.504 260.951 98.7463 265.31C106.128 269.81 106.128 276.701 98.7463 280.92Z" fill="#FCCC6B"/>
<path d="M98.7463 280.92C91.3647 285.138 79.387 285.138 72.1446 280.779C64.763 276.42 64.9023 269.529 72.1446 265.17C79.5262 260.951 91.504 260.951 98.7463 265.31C106.128 269.81 106.128 276.701 98.7463 280.92Z" fill="url(#paint14_radial)"/>
<path d="M85.515 282.466C81.3367 282.466 77.2978 281.482 74.0944 279.654C71.0304 277.826 69.359 275.435 69.359 272.904C69.359 270.373 71.0304 267.982 74.0944 266.295C80.3618 262.638 90.3897 262.779 96.6571 266.435C99.7212 268.263 101.392 270.654 101.392 273.185C101.392 275.716 99.7212 278.107 96.6571 279.794C93.593 281.623 89.554 282.466 85.515 282.466ZM85.3757 264.045C81.3367 264.045 77.437 264.888 74.3729 266.716C71.4482 268.404 69.7769 270.654 69.7769 273.044C69.7769 275.435 71.3089 277.685 74.2337 279.513C80.3618 283.169 90.2504 283.169 96.5178 279.654C99.4426 277.966 101.114 275.716 101.114 273.326C101.114 270.935 99.5819 268.685 96.6571 266.857C93.4537 265.029 89.4147 264.045 85.3757 264.045Z" fill="#F4A856"/>
<path d="M96.6573 279.654C90.5292 283.169 80.5013 283.169 74.2339 279.513C68.1058 275.857 68.1058 270.092 74.2339 266.435C80.362 262.92 90.3899 262.92 96.6573 266.576C102.785 270.232 102.785 276.138 96.6573 279.654Z" fill="url(#paint15_radial)"/>
<path d="M74.2339 267.279C80.3621 263.763 90.3899 263.763 96.6573 267.42C99.5821 269.107 101.114 271.357 101.253 273.607C101.393 271.076 99.8607 268.545 96.6573 266.717C90.5292 263.06 80.5013 263.06 74.2339 266.576C71.0306 268.404 69.3593 270.935 69.6378 273.466C69.7771 271.216 71.3091 268.967 74.2339 267.279Z" fill="#F4A856"/>
<path d="M98.7463 280.216C91.3647 284.435 79.387 284.435 72.1446 280.076C68.6628 277.966 66.8522 275.295 66.7129 272.623C66.5736 275.576 68.3842 278.529 72.1446 280.779C79.5263 285.138 91.3647 285.138 98.7463 280.92C102.646 278.67 104.457 275.717 104.317 272.763C104.178 275.576 102.228 278.248 98.7463 280.216Z" fill="#FCE586"/>
<path d="M117.27 276.279L115.877 277.544C115.32 275.857 114.206 274.169 112.395 272.482C106.128 266.717 94.4288 264.185 86.3508 266.857C84.1224 267.56 82.4511 268.685 81.1976 269.951L80.362 268.263L79.6656 271.498C78.9692 274.31 80.2227 277.544 83.426 280.357C89.6934 286.122 101.393 288.654 109.471 285.982C113.51 284.716 115.877 282.326 116.434 279.513L117.27 276.279Z" fill="#F4A856"/>
<path d="M110.306 282.748C102.228 285.419 90.529 282.888 84.2615 277.123C77.9941 271.357 79.3869 264.607 87.4649 261.935C95.5429 259.264 107.242 261.795 113.509 267.56C119.777 273.185 118.384 280.076 110.306 282.748Z" fill="#FCCC6B"/>
<path d="M110.306 282.748C102.228 285.419 90.529 282.888 84.2615 277.123C77.9941 271.357 79.3869 264.607 87.4649 261.935C95.5429 259.264 107.242 261.795 113.509 267.56C119.777 273.185 118.384 280.076 110.306 282.748Z" fill="url(#paint16_radial)"/>
<path d="M97.0749 281.482C93.0359 280.638 89.1362 278.81 86.49 276.419C83.8437 274.029 82.7295 271.357 83.2866 268.966C83.8437 266.435 85.9329 264.607 89.2755 263.482C96.1 261.232 105.989 263.341 111.281 268.263C113.927 270.654 115.041 273.326 114.484 275.716C113.927 278.247 111.838 280.075 108.495 281.2C105.153 282.325 100.975 282.325 97.0749 281.482ZM100.696 263.341C96.7963 262.498 92.7574 262.498 89.4147 263.623C86.2114 264.607 84.1223 266.576 83.7044 268.966C83.1473 271.357 84.2615 273.888 86.7685 276.138C92.061 280.919 101.81 283.029 108.495 280.779C111.699 279.794 113.788 277.826 114.206 275.435C114.763 273.044 113.649 270.513 111.142 268.263C108.356 266.013 104.596 264.185 100.696 263.341Z" fill="#F4A856"/>
<path d="M108.496 281.06C101.671 283.31 91.9219 281.201 86.6294 276.279C81.337 271.498 82.5904 265.732 89.2757 263.482C96.1002 261.232 105.849 263.341 111.142 268.263C116.434 273.044 115.32 278.81 108.496 281.06Z" fill="url(#paint17_radial)"/>
<path d="M89.1363 264.326C95.9608 262.076 105.71 264.185 111.003 269.107C113.51 271.357 114.624 273.888 114.206 276.138C114.902 273.748 113.927 270.935 111.142 268.404C105.849 263.623 96.1001 261.513 89.2756 263.623C85.6544 264.748 83.7045 266.998 83.2867 269.388C83.9831 267.138 85.9329 265.31 89.1363 264.326Z" fill="#F4A856"/>
<path d="M110.445 282.044C102.367 284.716 90.6682 282.185 84.4007 276.419C81.3367 273.607 80.0832 270.654 80.501 267.982C79.6653 270.795 80.9188 274.029 84.2615 277.123C90.5289 282.888 102.228 285.419 110.306 282.748C114.484 281.341 116.991 278.81 117.409 275.998C116.713 278.529 114.345 280.779 110.445 282.044Z" fill="#FCE586"/>
<path d="M88.5795 196.124L86.9082 196.968C86.9082 195.14 86.2118 193.171 85.0976 191.062C80.7801 183.609 70.4736 177.703 61.9778 177.703C59.6101 177.703 57.6603 178.125 56.1282 178.968L55.8497 177.14L54.1784 180.093C52.6463 182.484 52.9249 185.999 55.014 189.796C59.3316 197.249 69.638 203.155 78.1338 203.155C82.4514 203.155 85.3761 201.608 86.7689 199.218L88.5795 196.124Z" fill="#F4A856"/>
<path d="M79.9445 200.202C71.4487 200.202 61.1423 194.296 56.8247 186.843C52.5072 179.39 55.9891 173.343 64.4849 173.343C72.9807 173.343 83.2871 179.25 87.6047 186.703C91.9222 194.015 88.4403 200.062 79.9445 200.202Z" fill="#FCCC6B"/>
<path d="M79.9445 200.202C71.4487 200.202 61.1423 194.296 56.8247 186.843C52.5072 179.39 55.9891 173.343 64.4849 173.343C72.9807 173.343 83.2871 179.25 87.6047 186.703C91.9222 194.015 88.4403 200.062 79.9445 200.202Z" fill="url(#paint18_radial)"/>
<path d="M67.6884 194.859C64.0672 192.749 61.0032 189.937 59.1926 186.843C57.382 183.75 57.1034 180.937 58.3569 178.687C59.6104 176.437 62.2567 175.312 65.7385 175.312C72.9809 175.312 81.7552 180.375 85.2371 186.562C87.0477 189.656 87.3262 192.468 86.0728 194.718C84.8193 196.968 82.1731 198.093 78.6912 198.093C75.2093 198.093 71.1703 196.968 67.6884 194.859ZM76.602 178.828C73.1201 176.859 69.2204 175.593 65.7385 175.593C62.3959 175.593 59.889 176.718 58.6355 178.828C57.5213 180.937 57.7998 183.75 59.4711 186.703C63.0923 192.89 71.7274 197.812 78.8305 197.812C82.1731 197.812 84.68 196.687 85.9335 194.577C87.0477 192.468 86.7692 189.656 85.0979 186.703C83.148 183.609 80.0839 180.797 76.602 178.828Z" fill="#F4A856"/>
<path d="M78.6908 197.952C71.5877 197.952 62.8134 193.031 59.1922 186.703C55.571 180.515 58.4958 175.453 65.5989 175.312C72.702 175.312 81.4763 180.234 85.0975 186.562C88.7187 192.89 85.7939 197.952 78.6908 197.952Z" fill="url(#paint19_radial)"/>
<path d="M65.3207 176.156C72.4237 176.156 81.1981 181.078 84.8192 187.406C86.4906 190.359 86.7691 193.03 85.7942 194.999C87.1869 192.89 87.0477 189.937 85.2371 186.702C81.6159 180.515 72.9808 175.453 65.7385 175.453C61.9781 175.453 59.4711 176.859 58.3569 179.109C59.4711 177.281 61.978 176.156 65.3207 176.156Z" fill="#F4A856"/>
<path d="M80.3626 199.499C71.8667 199.499 61.5603 193.593 57.2428 186.14C55.1536 182.624 54.8751 179.39 56.1285 177C54.5965 179.531 54.7358 182.906 56.9642 186.843C61.2818 194.296 71.5882 200.202 80.084 200.202C84.5408 200.202 87.6049 198.515 88.8584 195.843C87.3263 198.093 84.4016 199.499 80.3626 199.499Z" fill="#FCE586"/>
<path d="M84.9581 229.452L84.8188 231.28C83.2868 230.436 81.3369 229.874 78.83 229.874C70.3341 229.733 59.8884 235.639 55.5709 243.092C54.3174 245.201 53.7603 247.03 53.621 248.858L51.9497 248.155L53.621 251.108C55.0138 253.639 57.9386 255.186 62.2561 255.326C70.752 255.467 81.1976 249.561 85.5152 242.108C87.7436 238.452 87.8829 235.077 86.6294 232.545L84.9581 229.452Z" fill="#F4A856"/>
<path d="M83.8438 239.014C79.5263 246.326 69.0806 252.233 60.5848 252.233C52.0889 252.092 48.7463 246.045 53.0639 238.733C57.3814 231.42 67.8271 225.514 76.3229 225.514C84.8187 225.514 88.3006 231.561 83.8438 239.014Z" fill="#FCCC6B"/>
<path d="M83.8438 239.014C79.5263 246.326 69.0806 252.233 60.5848 252.233C52.0889 252.092 48.7463 246.045 53.0639 238.733C57.3814 231.42 67.8271 225.514 76.3229 225.514C84.8187 225.514 88.3006 231.561 83.8438 239.014Z" fill="url(#paint20_radial)"/>
<path d="M73.1199 246.889C69.4987 248.998 65.4597 250.123 61.8386 250.123C58.3567 250.123 55.7104 248.858 54.457 246.608C53.2035 244.358 53.482 241.545 55.2926 238.452C58.9138 232.264 67.8274 227.202 74.9305 227.342C78.4124 227.342 81.0586 228.608 82.3121 230.858C83.5656 233.108 83.287 235.92 81.4765 239.014C79.8051 242.108 76.6018 244.92 73.1199 246.889ZM64.067 230.858C60.5851 232.827 57.521 235.639 55.8497 238.592C54.1784 241.545 53.7606 244.358 55.014 246.467C56.1283 248.576 58.6352 249.701 62.1171 249.842C69.2202 249.983 77.8553 245.061 81.4765 238.873C83.1478 235.92 83.5656 233.108 82.3121 230.999C81.1979 228.889 78.6909 227.764 75.209 227.624C71.5879 227.624 67.5489 228.889 64.067 230.858Z" fill="#F4A856"/>
<path d="M81.4762 238.873C77.855 245.061 69.0807 249.983 61.9777 249.983C54.8746 249.842 51.9498 244.78 55.7103 238.592C59.3314 232.405 68.1058 227.483 75.2088 227.483C82.1726 227.624 85.0974 232.686 81.4762 238.873Z" fill="url(#paint21_radial)"/>
<path d="M55.9886 239.295C59.6098 233.108 68.3842 228.186 75.4873 228.186C78.8299 228.186 81.3368 229.452 82.451 231.28C81.3368 229.03 78.8299 227.624 75.0694 227.483C67.9663 227.342 59.192 232.405 55.5708 238.592C53.6209 241.826 53.4817 244.779 54.8744 246.889C53.8995 244.92 54.1781 242.248 55.9886 239.295Z" fill="#F4A856"/>
<path d="M83.5653 238.311C79.2477 245.623 68.8021 251.53 60.3062 251.53C56.2673 251.53 53.3425 250.123 51.9497 247.733C53.2032 250.405 56.2673 252.092 60.7241 252.092C69.2199 252.233 79.6655 246.327 83.9831 238.874C86.2115 235.077 86.3508 231.561 84.8188 229.03C85.933 231.561 85.6544 234.796 83.5653 238.311Z" fill="#FCE586"/>
<path d="M191.364 187.546L145.961 138.329L100.557 134.672C100.557 134.672 93.3143 196.827 145.961 262.779C198.746 258.279 191.364 187.546 191.364 187.546Z" fill="#17994C"/>
<path d="M100.557 134.672L90.3898 140.579L135.794 144.375L145.961 138.329L100.557 134.672Z" fill="#1B5633"/>
<path d="M181.198 193.593L135.794 144.375L117.131 142.407L90.3898 140.578C90.3898 140.578 83.1475 202.734 135.794 268.685C188.44 264.186 181.198 193.593 181.198 193.593Z" fill="#2ECC71"/>
<path d="M181.198 193.593L135.794 144.375L90.3898 140.719C91.6433 140.016 91.6433 140.016 91.6433 140.016L137.744 143.813L183.147 193.031C183.147 193.031 189.276 252.092 150 265.732C187.047 250.686 181.198 193.593 181.198 193.593Z" fill="white"/>
<path d="M175.626 194.296L134.819 150L117.966 148.313L93.8715 146.625C93.8715 146.625 87.3255 202.593 134.679 261.795C182.312 257.857 175.626 194.296 175.626 194.296Z" fill="#87E8AE"/>
<defs>
<radialGradient id="paint0_radial" cx="0" cy="0" r="1" gradientUnits="userSpaceOnUse" gradientTransform="translate(57.8623 148.353) rotate(-51.7846) scale(27.0791 27.0193)">
<stop stop-color="#FCE586"/>
<stop offset="0.2273" stop-color="#FCDB7B"/>
<stop offset="0.6161" stop-color="#FCD06F"/>
<stop offset="1" stop-color="#FCCC6B"/>
</radialGradient>
<radialGradient id="paint1_radial" cx="0" cy="0" r="1" gradientUnits="userSpaceOnUse" gradientTransform="translate(84.847 153.175) rotate(-51.7849) scale(64.4165 64.2739)">
<stop stop-color="#FCE586"/>
<stop offset="0.2273" stop-color="#FCDB7B"/>
<stop offset="0.6161" stop-color="#FCD06F"/>
<stop offset="1" stop-color="#FCCC6B"/>
</radialGradient>
<radialGradient id="paint2_radial" cx="0" cy="0" r="1" gradientUnits="userSpaceOnUse" gradientTransform="translate(58.8661 259.865) rotate(-17.2293) scale(26.9417 27.1566)">
<stop stop-color="#FCE586"/>
<stop offset="0.2273" stop-color="#FCDB7B"/>
<stop offset="0.6161" stop-color="#FCD06F"/>
<stop offset="1" stop-color="#FCCC6B"/>
</radialGradient>
<radialGradient id="paint3_radial" cx="0" cy="0" r="1" gradientUnits="userSpaceOnUse" gradientTransform="translate(78.4191 279.25) rotate(-17.2295) scale(64.0902 64.6019)">
<stop stop-color="#FCE586"/>
<stop offset="0.2273" stop-color="#FCDB7B"/>
<stop offset="0.6161" stop-color="#FCD06F"/>
<stop offset="1" stop-color="#FCCC6B"/>
</radialGradient>
<radialGradient id="paint4_radial" cx="0" cy="0" r="1" gradientUnits="userSpaceOnUse" gradientTransform="translate(62.1019 255.201) rotate(-17.2294) scale(26.9419 27.1568)">
<stop stop-color="#FCE586"/>
<stop offset="0.2273" stop-color="#FCDB7B"/>
<stop offset="0.6161" stop-color="#FCD06F"/>
<stop offset="1" stop-color="#FCCC6B"/>
</radialGradient>
<radialGradient id="paint5_radial" cx="0" cy="0" r="1" gradientUnits="userSpaceOnUse" gradientTransform="translate(81.6547 274.587) rotate(-17.2294) scale(64.0901 64.6015)">
<stop stop-color="#FCE586"/>
<stop offset="0.2273" stop-color="#FCDB7B"/>
<stop offset="0.6161" stop-color="#FCD06F"/>
<stop offset="1" stop-color="#FCCC6B"/>
</radialGradient>
<radialGradient id="paint6_radial" cx="0" cy="0" r="1" gradientUnits="userSpaceOnUse" gradientTransform="translate(86.9418 278.378) rotate(-17.2293) scale(26.9417 27.1566)">
<stop stop-color="#FCE586"/>
<stop offset="0.2273" stop-color="#FCDB7B"/>
<stop offset="0.6161" stop-color="#FCD06F"/>
<stop offset="1" stop-color="#FCCC6B"/>
</radialGradient>
<radialGradient id="paint7_radial" cx="0" cy="0" r="1" gradientUnits="userSpaceOnUse" gradientTransform="translate(106.495 297.763) rotate(-17.2295) scale(64.0902 64.6019)">
<stop stop-color="#FCE586"/>
<stop offset="0.2273" stop-color="#FCDB7B"/>
<stop offset="0.6161" stop-color="#FCD06F"/>
<stop offset="1" stop-color="#FCCC6B"/>
</radialGradient>
<radialGradient id="paint8_radial" cx="0" cy="0" r="1" gradientUnits="userSpaceOnUse" gradientTransform="translate(49.247 284.979) rotate(-17.2293) scale(26.9417 27.1566)">
<stop stop-color="#FCE586"/>
<stop offset="0.2273" stop-color="#FCDB7B"/>
<stop offset="0.6161" stop-color="#FCD06F"/>
<stop offset="1" stop-color="#FCCC6B"/>
</radialGradient>
<radialGradient id="paint9_radial" cx="0" cy="0" r="1" gradientUnits="userSpaceOnUse" gradientTransform="translate(68.8 304.364) rotate(-17.2294) scale(64.0901 64.6015)">
<stop stop-color="#FCE586"/>
<stop offset="0.2273" stop-color="#FCDB7B"/>
<stop offset="0.6161" stop-color="#FCD06F"/>
<stop offset="1" stop-color="#FCCC6B"/>
</radialGradient>
<radialGradient id="paint10_radial" cx="0" cy="0" r="1" gradientUnits="userSpaceOnUse" gradientTransform="translate(67.0808 277.981) rotate(-17.2293) scale(26.9417 27.1566)">
<stop stop-color="#FCE586"/>
<stop offset="0.2273" stop-color="#FCDB7B"/>
<stop offset="0.6161" stop-color="#FCD06F"/>
<stop offset="1" stop-color="#FCCC6B"/>
</radialGradient>
<radialGradient id="paint11_radial" cx="0" cy="0" r="1" gradientUnits="userSpaceOnUse" gradientTransform="translate(86.6335 297.366) rotate(-17.2294) scale(64.0903 64.6016)">
<stop stop-color="#FCE586"/>
<stop offset="0.2273" stop-color="#FCDB7B"/>
<stop offset="0.6161" stop-color="#FCD06F"/>
<stop offset="1" stop-color="#FCCC6B"/>
</radialGradient>
<radialGradient id="paint12_radial" cx="0" cy="0" r="1" gradientUnits="userSpaceOnUse" gradientTransform="translate(71.9559 274.177) rotate(-17.2295) scale(26.9417 27.1568)">
<stop stop-color="#FCE586"/>
<stop offset="0.2273" stop-color="#FCDB7B"/>
<stop offset="0.6161" stop-color="#FCD06F"/>
<stop offset="1" stop-color="#FCCC6B"/>
</radialGradient>
<radialGradient id="paint13_radial" cx="0" cy="0" r="1" gradientUnits="userSpaceOnUse" gradientTransform="translate(91.5086 293.562) rotate(-17.2295) scale(64.0903 64.602)">
<stop stop-color="#FCE586"/>
<stop offset="0.2273" stop-color="#FCDB7B"/>
<stop offset="0.6161" stop-color="#FCD06F"/>
<stop offset="1" stop-color="#FCCC6B"/>
</radialGradient>
<radialGradient id="paint14_radial" cx="0" cy="0" r="1" gradientUnits="userSpaceOnUse" gradientTransform="translate(74.5384 266.861) rotate(-17.2295) scale(26.9417 27.1568)">
<stop stop-color="#FCE586"/>
<stop offset="0.2273" stop-color="#FCDB7B"/>
<stop offset="0.6161" stop-color="#FCD06F"/>
<stop offset="1" stop-color="#FCCC6B"/>
</radialGradient>
<radialGradient id="paint15_radial" cx="0" cy="0" r="1" gradientUnits="userSpaceOnUse" gradientTransform="translate(94.0915 286.246) rotate(-17.2292) scale(64.0901 64.6007)">
<stop stop-color="#FCE586"/>
<stop offset="0.2273" stop-color="#FCDB7B"/>
<stop offset="0.6161" stop-color="#FCD06F"/>
<stop offset="1" stop-color="#FCCC6B"/>
</radialGradient>
<radialGradient id="paint16_radial" cx="0" cy="0" r="1" gradientUnits="userSpaceOnUse" gradientTransform="translate(89.4838 263.873) rotate(-5.31194) scale(26.9214 27.1773)">
<stop stop-color="#FCE586"/>
<stop offset="0.2273" stop-color="#FCDB7B"/>
<stop offset="0.6161" stop-color="#FCD06F"/>
<stop offset="1" stop-color="#FCCC6B"/>
</radialGradient>
<radialGradient id="paint17_radial" cx="0" cy="0" r="1" gradientUnits="userSpaceOnUse" gradientTransform="translate(104.692 286.889) rotate(-5.31198) scale(64.0418 64.6511)">
<stop stop-color="#FCE586"/>
<stop offset="0.2273" stop-color="#FCDB7B"/>
<stop offset="0.6161" stop-color="#FCD06F"/>
<stop offset="1" stop-color="#FCCC6B"/>
</radialGradient>
<radialGradient id="paint18_radial" cx="0" cy="0" r="1" gradientUnits="userSpaceOnUse" gradientTransform="translate(65.7867 175.82) rotate(12.5376) scale(26.9314 27.1674)">
<stop stop-color="#FCE586"/>
<stop offset="0.2273" stop-color="#FCDB7B"/>
<stop offset="0.6161" stop-color="#FCD06F"/>
<stop offset="1" stop-color="#FCCC6B"/>
</radialGradient>
<radialGradient id="paint19_radial" cx="0" cy="0" r="1" gradientUnits="userSpaceOnUse" gradientTransform="translate(73.352 202.413) rotate(12.5376) scale(64.0653 64.6264)">
<stop stop-color="#FCE586"/>
<stop offset="0.2273" stop-color="#FCDB7B"/>
<stop offset="0.6161" stop-color="#FCD06F"/>
<stop offset="1" stop-color="#FCCC6B"/>
</radialGradient>
<radialGradient id="paint20_radial" cx="0" cy="0" r="1" gradientUnits="userSpaceOnUse" gradientTransform="translate(55.9434 238.726) rotate(-46.892) scale(27.0572 27.0412)">
<stop stop-color="#FCE586"/>
<stop offset="0.2273" stop-color="#FCDB7B"/>
<stop offset="0.6161" stop-color="#FCD06F"/>
<stop offset="1" stop-color="#FCCC6B"/>
</radialGradient>
<radialGradient id="paint21_radial" cx="0" cy="0" r="1" gradientUnits="userSpaceOnUse" gradientTransform="translate(82.4216 245.857) rotate(-46.8918) scale(64.3639 64.3261)">
<stop stop-color="#FCE586"/>
<stop offset="0.2273" stop-color="#FCDB7B"/>
<stop offset="0.6161" stop-color="#FCD06F"/>
<stop offset="1" stop-color="#FCCC6B"/>
</radialGradient>
</defs>
</svg>
