<svg width="44" height="32" viewBox="0 0 44 32" fill="none" xmlns="http://www.w3.org/2000/svg">
<path fill-rule="evenodd" clip-rule="evenodd" d="M31.2377 0.142003C30.7399 0.33108 30.2948 0.785518 30.1087 1.29463C29.8937 1.88305 30.0101 2.69917 30.366 3.09737C30.5819 3.339 30.6124 3.36878 30.8237 3.54297C31.1923 3.84689 31.2932 3.85773 34.075 3.89164C36.4553 3.92058 36.679 3.93202 36.697 4.02568C36.7239 4.16541 18.534 22.3588 18.3674 22.3588C18.292 22.3588 17.4443 21.5569 16.0471 20.1641C14.8363 18.957 13.7771 17.9072 13.6936 17.8313C13.473 17.6309 12.9401 17.4547 12.5545 17.4547C12.169 17.4547 11.6362 17.6309 11.415 17.8313C11.2161 18.0116 1.48797 27.7406 1.30769 27.9395C0.927876 28.3585 0.810553 29.3295 1.07638 29.8541C1.26229 30.221 1.7265 30.6853 2.09342 30.8712C2.61798 31.1371 3.58925 31.0197 4.00763 30.6399C4.09123 30.564 6.02173 28.6424 8.29748 26.3698C10.9492 23.7217 12.4778 22.2377 12.5537 22.2377C12.6284 22.2377 13.4829 23.0461 14.8735 24.4324C16.0843 25.6395 17.1434 26.6892 17.227 26.7651C17.4476 26.9655 17.9805 27.1417 18.3661 27.1417C18.7516 27.1417 19.2845 26.9656 19.5056 26.7651C19.5893 26.6892 24.109 22.1777 29.5494 16.7397C36.1561 10.1357 39.4748 6.85874 39.5431 6.87188C39.6365 6.88986 39.648 7.11515 39.6769 9.49408C39.7108 12.2761 39.7217 12.377 40.0256 12.7456C40.5056 13.3278 40.9852 13.58 41.6127 13.58C42.4091 13.58 43.1558 13.0557 43.4307 12.3036C43.5459 11.9884 43.55 11.8 43.55 6.77835V1.57942L43.3686 1.20751C43.0911 0.638398 42.7607 0.31552 42.2737 0.137522C41.9581 0.0221266 41.7778 0.0184336 36.7403 0.0240035C31.8248 0.0294525 31.5166 0.0360518 31.2377 0.142003Z" fill="#2ECC71"/>
</svg>
