<svg width="30" height="32" viewBox="0 0 30 32" fill="none" xmlns="http://www.w3.org/2000/svg">
<path fill-rule="evenodd" clip-rule="evenodd" d="M15 31.0659C23.2843 31.0659 30 24.2854 30 15.9211C30 7.55691 23.2843 0.776367 15 0.776367C6.71573 0.776367 0 7.55691 0 15.9211C0 24.2854 6.71573 31.0659 15 31.0659Z" fill="#2ECC71"/>
<path d="M7.37161 11.0647C7.39646 10.811 7.30284 10.5603 7.11951 10.3896L5.2521 8.06501V7.71777H11.0504L15.5322 17.8744L19.4725 7.71777H25V8.06501L23.4034 9.64685C23.2657 9.75527 23.1974 9.93347 23.226 10.1098V21.7326C23.1974 21.9089 23.2657 22.0871 23.4034 22.1955L24.9626 23.7774V24.1246H17.1195V23.7774L18.7348 22.1569C18.8936 21.993 18.8936 21.9447 18.8936 21.694V12.2993L14.4024 24.086H13.7955L8.56676 12.2993V20.1989C8.52316 20.5311 8.62991 20.8654 8.85621 21.1056L10.957 23.7388V24.086H5V23.7388L7.10084 21.1056C7.32549 20.865 7.42601 20.5284 7.37161 20.1989V11.0647Z" fill="#252525"/>
</svg>
