<svg width="30" height="31" viewBox="0 0 30 31" fill="none" xmlns="http://www.w3.org/2000/svg">
<path fill-rule="evenodd" clip-rule="evenodd" d="M15 30.2901C23.2843 30.2901 30 23.5094 30 15.1451C30 6.78067 23.2843 0 15 0C6.71573 0 0 6.78067 0 15.1451C0 23.5094 6.71573 30.2901 15 30.2901Z" fill="#2ECC71"/>
<path d="M7.37161 10.2885C7.39646 10.0348 7.30284 9.78404 7.11951 9.61329L5.2521 7.28871V6.94147H11.0504L15.5322 17.0983L19.4725 6.94147H25V7.28871L23.4034 8.87058C23.2657 8.979 23.1974 9.1572 23.226 9.33357V20.9565C23.1974 21.1329 23.2657 21.3111 23.4034 21.4195L24.9626 23.0014V23.3486H17.1195V23.0014L18.7348 21.3809C18.8936 21.2169 18.8936 21.1687 18.8936 20.9179V11.5231L14.4024 23.31H13.7955L8.56676 11.5231V19.4229C8.52316 19.755 8.62991 20.0894 8.85621 20.3295L10.957 22.9628V23.31H5V22.9628L7.10084 20.3295C7.32549 20.089 7.42601 19.7524 7.37161 19.4229V10.2885Z" fill="white"/>
</svg>
